solid ASCII
  facet normal 0.000000e+00 -2.399158e-01 9.707937e-01
    outer loop
      vertex   1.875000e+00 -4.658624e+00 1.339466e+01
      vertex   1.875000e+00 -5.044123e+00 1.329939e+01
      vertex   5.625000e+00 -4.658624e+00 1.339466e+01
    endloop
  endfacet
  facet normal 0.000000e+00 -2.399158e-01 9.707937e-01
    outer loop
      vertex   5.625000e+00 -4.658624e+00 1.339466e+01
      vertex   1.875000e+00 -5.044123e+00 1.329939e+01
      vertex   5.625000e+00 -5.044123e+00 1.329939e+01
    endloop
  endfacet
  facet normal 0.000000e+00 -2.678492e-01 9.634608e-01
    outer loop
      vertex   5.625000e+00 -5.044123e+00 1.329939e+01
      vertex   1.875000e+00 -5.044123e+00 1.329939e+01
      vertex   1.875000e+00 -5.426711e+00 1.319302e+01
    endloop
  endfacet
  facet normal 0.000000e+00 -2.678492e-01 9.634608e-01
    outer loop
      vertex   5.625000e+00 -5.044123e+00 1.329939e+01
      vertex   1.875000e+00 -5.426711e+00 1.319302e+01
      vertex   5.625000e+00 -5.426711e+00 1.319302e+01
    endloop
  endfacet
  facet normal 0.000000e+00 -2.955592e-01 9.553244e-01
    outer loop
      vertex   5.625000e+00 -5.426711e+00 1.319302e+01
      vertex   1.875000e+00 -5.426711e+00 1.319302e+01
      vertex   1.875000e+00 -5.806068e+00 1.307566e+01
    endloop
  endfacet
  facet normal 0.000000e+00 -2.955592e-01 9.553244e-01
    outer loop
      vertex   5.625000e+00 -5.426711e+00 1.319302e+01
      vertex   1.875000e+00 -5.806068e+00 1.307566e+01
      vertex   5.625000e+00 -5.806068e+00 1.307566e+01
    endloop
  endfacet
  facet normal 0.000000e+00 -3.230226e-01 9.463912e-01
    outer loop
      vertex   5.625000e+00 -5.806068e+00 1.307566e+01
      vertex   1.875000e+00 -5.806068e+00 1.307566e+01
      vertex   1.875000e+00 -6.181877e+00 1.294739e+01
    endloop
  endfacet
  facet normal 0.000000e+00 -3.230226e-01 9.463912e-01
    outer loop
      vertex   5.625000e+00 -5.806068e+00 1.307566e+01
      vertex   1.875000e+00 -6.181877e+00 1.294739e+01
      vertex   5.625000e+00 -6.181877e+00 1.294739e+01
    endloop
  endfacet
  facet normal 0.000000e+00 -3.502167e-01 9.366687e-01
    outer loop
      vertex   5.625000e+00 -6.181877e+00 1.294739e+01
      vertex   1.875000e+00 -6.181877e+00 1.294739e+01
      vertex   1.875000e+00 -6.553826e+00 1.280832e+01
    endloop
  endfacet
  facet normal 0.000000e+00 -3.502167e-01 9.366687e-01
    outer loop
      vertex   5.625000e+00 -6.181877e+00 1.294739e+01
      vertex   1.875000e+00 -6.553826e+00 1.280832e+01
      vertex   5.625000e+00 -6.553826e+00 1.280832e+01
    endloop
  endfacet
  facet normal 0.000000e+00 -3.771186e-01 9.261650e-01
    outer loop
      vertex   5.625000e+00 -6.553826e+00 1.280832e+01
      vertex   1.875000e+00 -6.553826e+00 1.280832e+01
      vertex   1.875000e+00 -6.921603e+00 1.265856e+01
    endloop
  endfacet
  facet normal 0.000000e+00 -3.771186e-01 9.261650e-01
    outer loop
      vertex   5.625000e+00 -6.553826e+00 1.280832e+01
      vertex   1.875000e+00 -6.921603e+00 1.265856e+01
      vertex   5.625000e+00 -6.921603e+00 1.265856e+01
    endloop
  endfacet
  facet normal 0.000000e+00 -4.037060e-01 9.148888e-01
    outer loop
      vertex   5.625000e+00 -6.921603e+00 1.265856e+01
      vertex   1.875000e+00 -6.921603e+00 1.265856e+01
      vertex   1.875000e+00 -7.284903e+00 1.249825e+01
    endloop
  endfacet
  facet normal 0.000000e+00 -4.037060e-01 9.148888e-01
    outer loop
      vertex   5.625000e+00 -6.921603e+00 1.265856e+01
      vertex   1.875000e+00 -7.284903e+00 1.249825e+01
      vertex   5.625000e+00 -7.284903e+00 1.249825e+01
    endloop
  endfacet
  facet normal 0.000000e+00 -4.299567e-01 9.028495e-01
    outer loop
      vertex   5.625000e+00 -7.284903e+00 1.249825e+01
      vertex   1.875000e+00 -7.284903e+00 1.249825e+01
      vertex   1.875000e+00 -7.643422e+00 1.232752e+01
    endloop
  endfacet
  facet normal 0.000000e+00 -4.299567e-01 9.028495e-01
    outer loop
      vertex   5.625000e+00 -7.284903e+00 1.249825e+01
      vertex   1.875000e+00 -7.643422e+00 1.232752e+01
      vertex   5.625000e+00 -7.643422e+00 1.232752e+01
    endloop
  endfacet
  facet normal 0.000000e+00 -4.558488e-01 8.900572e-01
    outer loop
      vertex   5.625000e+00 -7.643422e+00 1.232752e+01
      vertex   1.875000e+00 -7.643422e+00 1.232752e+01
      vertex   1.875000e+00 -7.996862e+00 1.214650e+01
    endloop
  endfacet
  facet normal 0.000000e+00 -4.558488e-01 8.900572e-01
    outer loop
      vertex   5.625000e+00 -7.643422e+00 1.232752e+01
      vertex   1.875000e+00 -7.996862e+00 1.214650e+01
      vertex   5.625000e+00 -7.996862e+00 1.214650e+01
    endloop
  endfacet
  facet normal 0.000000e+00 -4.813607e-01 8.765226e-01
    outer loop
      vertex   5.625000e+00 -7.996862e+00 1.214650e+01
      vertex   1.875000e+00 -7.996862e+00 1.214650e+01
      vertex   1.875000e+00 -8.344926e+00 1.195536e+01
    endloop
  endfacet
  facet normal 0.000000e+00 -4.813607e-01 8.765226e-01
    outer loop
      vertex   5.625000e+00 -7.996862e+00 1.214650e+01
      vertex   1.875000e+00 -8.344926e+00 1.195536e+01
      vertex   5.625000e+00 -8.344926e+00 1.195536e+01
    endloop
  endfacet
  facet normal 0.000000e+00 -5.064711e-01 8.622569e-01
    outer loop
      vertex   5.625000e+00 -8.344926e+00 1.195536e+01
      vertex   1.875000e+00 -8.344926e+00 1.195536e+01
      vertex   1.875000e+00 -8.687326e+00 1.175424e+01
    endloop
  endfacet
  facet normal 0.000000e+00 -5.064711e-01 8.622569e-01
    outer loop
      vertex   5.625000e+00 -8.344926e+00 1.195536e+01
      vertex   1.875000e+00 -8.687326e+00 1.175424e+01
      vertex   5.625000e+00 -8.687326e+00 1.175424e+01
    endloop
  endfacet
  facet normal 0.000000e+00 -5.311591e-01 8.472721e-01
    outer loop
      vertex   5.625000e+00 -8.687326e+00 1.175424e+01
      vertex   1.875000e+00 -8.687326e+00 1.175424e+01
      vertex   1.875000e+00 -9.023776e+00 1.154332e+01
    endloop
  endfacet
  facet normal 0.000000e+00 -5.311591e-01 8.472721e-01
    outer loop
      vertex   5.625000e+00 -8.687326e+00 1.175424e+01
      vertex   1.875000e+00 -9.023776e+00 1.154332e+01
      vertex   5.625000e+00 -9.023776e+00 1.154332e+01
    endloop
  endfacet
  facet normal 0.000000e+00 -5.554041e-01 8.315806e-01
    outer loop
      vertex   5.625000e+00 -9.023776e+00 1.154332e+01
      vertex   1.875000e+00 -9.023776e+00 1.154332e+01
      vertex   1.875000e+00 -9.353994e+00 1.132277e+01
    endloop
  endfacet
  facet normal 0.000000e+00 -5.554041e-01 8.315806e-01
    outer loop
      vertex   5.625000e+00 -9.023776e+00 1.154332e+01
      vertex   1.875000e+00 -9.353994e+00 1.132277e+01
      vertex   5.625000e+00 -9.353994e+00 1.132277e+01
    endloop
  endfacet
  facet normal 0.000000e+00 -5.791859e-01 8.151955e-01
    outer loop
      vertex   5.625000e+00 -9.353994e+00 1.132277e+01
      vertex   1.875000e+00 -9.353994e+00 1.132277e+01
      vertex   1.875000e+00 -9.677706e+00 1.109277e+01
    endloop
  endfacet
  facet normal 0.000000e+00 -5.791859e-01 8.151955e-01
    outer loop
      vertex   5.625000e+00 -9.353994e+00 1.132277e+01
      vertex   1.875000e+00 -9.677706e+00 1.109277e+01
      vertex   5.625000e+00 -9.677706e+00 1.109277e+01
    endloop
  endfacet
  facet normal 0.000000e+00 -6.024846e-01 7.981305e-01
    outer loop
      vertex   5.625000e+00 -9.677706e+00 1.109277e+01
      vertex   1.875000e+00 -9.677706e+00 1.109277e+01
      vertex   1.875000e+00 -9.994642e+00 1.085353e+01
    endloop
  endfacet
  facet normal 0.000000e+00 -6.024846e-01 7.981305e-01
    outer loop
      vertex   5.625000e+00 -9.677706e+00 1.109277e+01
      vertex   1.875000e+00 -9.994642e+00 1.085353e+01
      vertex   5.625000e+00 -9.994642e+00 1.085353e+01
    endloop
  endfacet
  facet normal 0.000000e+00 -6.252808e-01 7.803999e-01
    outer loop
      vertex   5.625000e+00 -9.994642e+00 1.085353e+01
      vertex   1.875000e+00 -9.994642e+00 1.085353e+01
      vertex   1.875000e+00 -1.030454e+01 1.060523e+01
    endloop
  endfacet
  facet normal 0.000000e+00 -6.252808e-01 7.803999e-01
    outer loop
      vertex   5.625000e+00 -9.994642e+00 1.085353e+01
      vertex   1.875000e+00 -1.030454e+01 1.060523e+01
      vertex   5.625000e+00 -1.030454e+01 1.060523e+01
    endloop
  endfacet
  facet normal 0.000000e+00 -6.475555e-01 7.620183e-01
    outer loop
      vertex   5.625000e+00 -1.030454e+01 1.060523e+01
      vertex   1.875000e+00 -1.030454e+01 1.060523e+01
      vertex   1.875000e+00 -1.060713e+01 1.034809e+01
    endloop
  endfacet
  facet normal 0.000000e+00 -6.475555e-01 7.620183e-01
    outer loop
      vertex   5.625000e+00 -1.030454e+01 1.060523e+01
      vertex   1.875000e+00 -1.060713e+01 1.034809e+01
      vertex   5.625000e+00 -1.060713e+01 1.034809e+01
    endloop
  endfacet
  facet normal 0.000000e+00 -6.692901e-01 7.430012e-01
    outer loop
      vertex   5.625000e+00 -1.060713e+01 1.034809e+01
      vertex   1.875000e+00 -1.060713e+01 1.034809e+01
      vertex   1.875000e+00 -1.090218e+01 1.008231e+01
    endloop
  endfacet
  facet normal 0.000000e+00 -6.692901e-01 7.430012e-01
    outer loop
      vertex   5.625000e+00 -1.060713e+01 1.034809e+01
      vertex   1.875000e+00 -1.090218e+01 1.008231e+01
      vertex   5.625000e+00 -1.090218e+01 1.008231e+01
    endloop
  endfacet
  facet normal 0.000000e+00 -6.904665e-01 7.233644e-01
    outer loop
      vertex   5.625000e+00 -1.090218e+01 1.008231e+01
      vertex   1.875000e+00 -1.090218e+01 1.008231e+01
      vertex   1.875000e+00 -1.118942e+01 9.808132e+00
    endloop
  endfacet
  facet normal 0.000000e+00 -6.904665e-01 7.233644e-01
    outer loop
      vertex   5.625000e+00 -1.090218e+01 1.008231e+01
      vertex   1.875000e+00 -1.118942e+01 9.808132e+00
      vertex   5.625000e+00 -1.118942e+01 9.808132e+00
    endloop
  endfacet
  facet normal 0.000000e+00 -7.110670e-01 7.031243e-01
    outer loop
      vertex   5.625000e+00 -1.118942e+01 9.808132e+00
      vertex   1.875000e+00 -1.118942e+01 9.808132e+00
      vertex   1.875000e+00 -1.146863e+01 9.525770e+00
    endloop
  endfacet
  facet normal 0.000000e+00 -7.110670e-01 7.031243e-01
    outer loop
      vertex   5.625000e+00 -1.118942e+01 9.808132e+00
      vertex   1.875000e+00 -1.146863e+01 9.525770e+00
      vertex   5.625000e+00 -1.146863e+01 9.525770e+00
    endloop
  endfacet
  facet normal 0.000000e+00 -7.310744e-01 6.822977e-01
    outer loop
      vertex   5.625000e+00 -1.146863e+01 9.525770e+00
      vertex   1.875000e+00 -1.146863e+01 9.525770e+00
      vertex   1.875000e+00 -1.173957e+01 9.235462e+00
    endloop
  endfacet
  facet normal 0.000000e+00 -7.310744e-01 6.822977e-01
    outer loop
      vertex   5.625000e+00 -1.146863e+01 9.525770e+00
      vertex   1.875000e+00 -1.173957e+01 9.235462e+00
      vertex   5.625000e+00 -1.173957e+01 9.235462e+00
    endloop
  endfacet
  facet normal 0.000000e+00 -7.504721e-01 6.609021e-01
    outer loop
      vertex   5.625000e+00 -1.173957e+01 9.235462e+00
      vertex   1.875000e+00 -1.173957e+01 9.235462e+00
      vertex   1.875000e+00 -1.200201e+01 8.937451e+00
    endloop
  endfacet
  facet normal 0.000000e+00 -7.504721e-01 6.609021e-01
    outer loop
      vertex   5.625000e+00 -1.173957e+01 9.235462e+00
      vertex   1.875000e+00 -1.200201e+01 8.937451e+00
      vertex   5.625000e+00 -1.200201e+01 8.937451e+00
    endloop
  endfacet
  facet normal 0.000000e+00 -7.692439e-01 6.389553e-01
    outer loop
      vertex   5.625000e+00 -1.200201e+01 8.937451e+00
      vertex   1.875000e+00 -1.200201e+01 8.937451e+00
      vertex   1.875000e+00 -1.225574e+01 8.631987e+00
    endloop
  endfacet
  facet normal 0.000000e+00 -7.692439e-01 6.389553e-01
    outer loop
      vertex   5.625000e+00 -1.200201e+01 8.937451e+00
      vertex   1.875000e+00 -1.225574e+01 8.631987e+00
      vertex   5.625000e+00 -1.225574e+01 8.631987e+00
    endloop
  endfacet
  facet normal 0.000000e+00 -7.873741e-01 6.164755e-01
    outer loop
      vertex   5.625000e+00 -1.225574e+01 8.631987e+00
      vertex   1.875000e+00 -1.225574e+01 8.631987e+00
      vertex   1.875000e+00 -1.250054e+01 8.319323e+00
    endloop
  endfacet
  facet normal 0.000000e+00 -7.873741e-01 6.164755e-01
    outer loop
      vertex   5.625000e+00 -1.225574e+01 8.631987e+00
      vertex   1.875000e+00 -1.250054e+01 8.319323e+00
      vertex   5.625000e+00 -1.250054e+01 8.319323e+00
    endloop
  endfacet
  facet normal 0.000000e+00 -8.048476e-01 5.934816e-01
    outer loop
      vertex   5.625000e+00 -1.250054e+01 8.319323e+00
      vertex   1.875000e+00 -1.250054e+01 8.319323e+00
      vertex   1.875000e+00 -1.273621e+01 7.999720e+00
    endloop
  endfacet
  facet normal 0.000000e+00 -8.048476e-01 5.934816e-01
    outer loop
      vertex   5.625000e+00 -1.250054e+01 8.319323e+00
      vertex   1.875000e+00 -1.273621e+01 7.999720e+00
      vertex   5.625000e+00 -1.273621e+01 7.999720e+00
    endloop
  endfacet
  facet normal 0.000000e+00 -8.216498e-01 5.699927e-01
    outer loop
      vertex   5.625000e+00 -1.273621e+01 7.999720e+00
      vertex   1.875000e+00 -1.273621e+01 7.999720e+00
      vertex   1.875000e+00 -1.296255e+01 7.673445e+00
    endloop
  endfacet
  facet normal 0.000000e+00 -8.216498e-01 5.699927e-01
    outer loop
      vertex   5.625000e+00 -1.273621e+01 7.999720e+00
      vertex   1.875000e+00 -1.296255e+01 7.673445e+00
      vertex   5.625000e+00 -1.296255e+01 7.673445e+00
    endloop
  endfacet
  facet normal 0.000000e+00 -8.377667e-01 5.460284e-01
    outer loop
      vertex   5.625000e+00 -1.296255e+01 7.673445e+00
      vertex   1.875000e+00 -1.296255e+01 7.673445e+00
      vertex   1.875000e+00 -1.317938e+01 7.340770e+00
    endloop
  endfacet
  facet normal 0.000000e+00 -8.377667e-01 5.460284e-01
    outer loop
      vertex   5.625000e+00 -1.296255e+01 7.673445e+00
      vertex   1.875000e+00 -1.317938e+01 7.340770e+00
      vertex   5.625000e+00 -1.317938e+01 7.340770e+00
    endloop
  endfacet
  facet normal 0.000000e+00 -8.531849e-01 5.216087e-01
    outer loop
      vertex   5.625000e+00 -1.317938e+01 7.340770e+00
      vertex   1.875000e+00 -1.317938e+01 7.340770e+00
      vertex   1.875000e+00 -1.338651e+01 7.001973e+00
    endloop
  endfacet
  facet normal 0.000000e+00 -8.531849e-01 5.216087e-01
    outer loop
      vertex   5.625000e+00 -1.317938e+01 7.340770e+00
      vertex   1.875000e+00 -1.338651e+01 7.001973e+00
      vertex   5.625000e+00 -1.338651e+01 7.001973e+00
    endloop
  endfacet
  facet normal 0.000000e+00 -8.678914e-01 4.967539e-01
    outer loop
      vertex   5.625000e+00 -1.338651e+01 7.001973e+00
      vertex   1.875000e+00 -1.338651e+01 7.001973e+00
      vertex   1.875000e+00 -1.358377e+01 6.657335e+00
    endloop
  endfacet
  facet normal 0.000000e+00 -8.678914e-01 4.967539e-01
    outer loop
      vertex   5.625000e+00 -1.338651e+01 7.001973e+00
      vertex   1.875000e+00 -1.358377e+01 6.657335e+00
      vertex   5.625000e+00 -1.358377e+01 6.657335e+00
    endloop
  endfacet
  facet normal 0.000000e+00 -8.818742e-01 4.714848e-01
    outer loop
      vertex   5.625000e+00 -1.358377e+01 6.657335e+00
      vertex   1.875000e+00 -1.358377e+01 6.657335e+00
      vertex   1.875000e+00 -1.377099e+01 6.307145e+00
    endloop
  endfacet
  facet normal 0.000000e+00 -8.818742e-01 4.714848e-01
    outer loop
      vertex   5.625000e+00 -1.358377e+01 6.657335e+00
      vertex   1.875000e+00 -1.377099e+01 6.307145e+00
      vertex   5.625000e+00 -1.377099e+01 6.307145e+00
    endloop
  endfacet
  facet normal 0.000000e+00 -8.951214e-01 4.458225e-01
    outer loop
      vertex   5.625000e+00 -1.377099e+01 6.307145e+00
      vertex   1.875000e+00 -1.377099e+01 6.307145e+00
      vertex   1.875000e+00 -1.394803e+01 5.951695e+00
    endloop
  endfacet
  facet normal 0.000000e+00 -8.951214e-01 4.458225e-01
    outer loop
      vertex   5.625000e+00 -1.377099e+01 6.307145e+00
      vertex   1.875000e+00 -1.394803e+01 5.951695e+00
      vertex   5.625000e+00 -1.394803e+01 5.951695e+00
    endloop
  endfacet
  facet normal 0.000000e+00 -9.076220e-01 4.197884e-01
    outer loop
      vertex   5.625000e+00 -1.394803e+01 5.951695e+00
      vertex   1.875000e+00 -1.394803e+01 5.951695e+00
      vertex   1.875000e+00 -1.411472e+01 5.591281e+00
    endloop
  endfacet
  facet normal 0.000000e+00 -9.076220e-01 4.197884e-01
    outer loop
      vertex   5.625000e+00 -1.394803e+01 5.951695e+00
      vertex   1.875000e+00 -1.411472e+01 5.591281e+00
      vertex   5.625000e+00 -1.411472e+01 5.591281e+00
    endloop
  endfacet
  facet normal 0.000000e+00 -9.193657e-01 3.934041e-01
    outer loop
      vertex   5.625000e+00 -1.411472e+01 5.591281e+00
      vertex   1.875000e+00 -1.411472e+01 5.591281e+00
      vertex   1.875000e+00 -1.427094e+01 5.226203e+00
    endloop
  endfacet
  facet normal 0.000000e+00 -9.193657e-01 3.934041e-01
    outer loop
      vertex   5.625000e+00 -1.411472e+01 5.591281e+00
      vertex   1.875000e+00 -1.427094e+01 5.226203e+00
      vertex   5.625000e+00 -1.427094e+01 5.226203e+00
    endloop
  endfacet
  facet normal 0.000000e+00 -9.303425e-01 3.666917e-01
    outer loop
      vertex   5.625000e+00 -1.427094e+01 5.226203e+00
      vertex   1.875000e+00 -1.427094e+01 5.226203e+00
      vertex   1.875000e+00 -1.441656e+01 4.856767e+00
    endloop
  endfacet
  facet normal 0.000000e+00 -9.303425e-01 3.666917e-01
    outer loop
      vertex   5.625000e+00 -1.427094e+01 5.226203e+00
      vertex   1.875000e+00 -1.441656e+01 4.856767e+00
      vertex   5.625000e+00 -1.441656e+01 4.856767e+00
    endloop
  endfacet
  facet normal 0.000000e+00 -9.405434e-01 3.396735e-01
    outer loop
      vertex   5.625000e+00 -1.441656e+01 4.856767e+00
      vertex   1.875000e+00 -1.441656e+01 4.856767e+00
      vertex   1.875000e+00 -1.455144e+01 4.483280e+00
    endloop
  endfacet
  facet normal 0.000000e+00 -9.405434e-01 3.396735e-01
    outer loop
      vertex   5.625000e+00 -1.441656e+01 4.856767e+00
      vertex   1.875000e+00 -1.455144e+01 4.483280e+00
      vertex   5.625000e+00 -1.455144e+01 4.483280e+00
    endloop
  endfacet
  facet normal 0.000000e+00 -9.499599e-01 3.123719e-01
    outer loop
      vertex   5.625000e+00 -1.455144e+01 4.483280e+00
      vertex   1.875000e+00 -1.455144e+01 4.483280e+00
      vertex   1.875000e+00 -1.467548e+01 4.106053e+00
    endloop
  endfacet
  facet normal 0.000000e+00 -9.499599e-01 3.123719e-01
    outer loop
      vertex   5.625000e+00 -1.455144e+01 4.483280e+00
      vertex   1.875000e+00 -1.467548e+01 4.106053e+00
      vertex   5.625000e+00 -1.467548e+01 4.106053e+00
    endloop
  endfacet
  facet normal 0.000000e+00 -9.585840e-01 2.848099e-01
    outer loop
      vertex   5.625000e+00 -1.467548e+01 4.106053e+00
      vertex   1.875000e+00 -1.467548e+01 4.106053e+00
      vertex   1.875000e+00 -1.478858e+01 3.725402e+00
    endloop
  endfacet
  facet normal 0.000000e+00 -9.585840e-01 2.848099e-01
    outer loop
      vertex   5.625000e+00 -1.467548e+01 4.106053e+00
      vertex   1.875000e+00 -1.478858e+01 3.725402e+00
      vertex   5.625000e+00 -1.478858e+01 3.725402e+00
    endloop
  endfacet
  facet normal 0.000000e+00 -9.664087e-01 2.570103e-01
    outer loop
      vertex   5.625000e+00 -1.478858e+01 3.725402e+00
      vertex   1.875000e+00 -1.478858e+01 3.725402e+00
      vertex   1.875000e+00 -1.489064e+01 3.341644e+00
    endloop
  endfacet
  facet normal 0.000000e+00 -9.664087e-01 2.570103e-01
    outer loop
      vertex   5.625000e+00 -1.478858e+01 3.725402e+00
      vertex   1.875000e+00 -1.489064e+01 3.341644e+00
      vertex   5.625000e+00 -1.489064e+01 3.341644e+00
    endloop
  endfacet
  facet normal 0.000000e+00 -9.734273e-01 2.289963e-01
    outer loop
      vertex   5.625000e+00 -1.489064e+01 3.341644e+00
      vertex   1.875000e+00 -1.489064e+01 3.341644e+00
      vertex   1.875000e+00 -1.498157e+01 2.955098e+00
    endloop
  endfacet
  facet normal 0.000000e+00 -9.734273e-01 2.289963e-01
    outer loop
      vertex   5.625000e+00 -1.489064e+01 3.341644e+00
      vertex   1.875000e+00 -1.498157e+01 2.955098e+00
      vertex   5.625000e+00 -1.498157e+01 2.955098e+00
    endloop
  endfacet
  facet normal 0.000000e+00 -9.796340e-01 2.007913e-01
    outer loop
      vertex   5.625000e+00 -1.498157e+01 2.955098e+00
      vertex   1.875000e+00 -1.498157e+01 2.955098e+00
      vertex   1.875000e+00 -1.506130e+01 2.566088e+00
    endloop
  endfacet
  facet normal 0.000000e+00 -9.796340e-01 2.007913e-01
    outer loop
      vertex   5.625000e+00 -1.498157e+01 2.955098e+00
      vertex   1.875000e+00 -1.506130e+01 2.566088e+00
      vertex   5.625000e+00 -1.506130e+01 2.566088e+00
    endloop
  endfacet
  facet normal 0.000000e+00 -9.850237e-01 1.724189e-01
    outer loop
      vertex   5.625000e+00 -1.506130e+01 2.566088e+00
      vertex   1.875000e+00 -1.506130e+01 2.566088e+00
      vertex   1.875000e+00 -1.512977e+01 2.174938e+00
    endloop
  endfacet
  facet normal 0.000000e+00 -9.850237e-01 1.724189e-01
    outer loop
      vertex   5.625000e+00 -1.506130e+01 2.566088e+00
      vertex   1.875000e+00 -1.512977e+01 2.174938e+00
      vertex   5.625000e+00 -1.512977e+01 2.174938e+00
    endloop
  endfacet
  facet normal 0.000000e+00 -9.895918e-01 1.439027e-01
    outer loop
      vertex   5.625000e+00 -1.512977e+01 2.174938e+00
      vertex   1.875000e+00 -1.512977e+01 2.174938e+00
      vertex   1.875000e+00 -1.518692e+01 1.781974e+00
    endloop
  endfacet
  facet normal 0.000000e+00 -9.895918e-01 1.439027e-01
    outer loop
      vertex   5.625000e+00 -1.512977e+01 2.174938e+00
      vertex   1.875000e+00 -1.518692e+01 1.781974e+00
      vertex   5.625000e+00 -1.518692e+01 1.781974e+00
    endloop
  endfacet
  facet normal 0.000000e+00 -9.933346e-01 1.152664e-01
    outer loop
      vertex   5.625000e+00 -1.518692e+01 1.781974e+00
      vertex   1.875000e+00 -1.518692e+01 1.781974e+00
      vertex   1.875000e+00 -1.523269e+01 1.387523e+00
    endloop
  endfacet
  facet normal 0.000000e+00 -9.933346e-01 1.152664e-01
    outer loop
      vertex   5.625000e+00 -1.518692e+01 1.781974e+00
      vertex   1.875000e+00 -1.523269e+01 1.387523e+00
      vertex   5.625000e+00 -1.523269e+01 1.387523e+00
    endloop
  endfacet
  facet normal 0.000000e+00 -9.962489e-01 8.653406e-02
    outer loop
      vertex   5.625000e+00 -1.523269e+01 1.387523e+00
      vertex   1.875000e+00 -1.523269e+01 1.387523e+00
      vertex   5.625000e+00 -1.526705e+01 9.919154e-01
    endloop
  endfacet
  facet normal 0.000000e+00 -9.962489e-01 8.653406e-02
    outer loop
      vertex   5.625000e+00 -1.526705e+01 9.919154e-01
      vertex   1.875000e+00 -1.523269e+01 1.387523e+00
      vertex   1.875000e+00 -1.526705e+01 9.919154e-01
    endloop
  endfacet
  facet normal 0.000000e+00 -9.983323e-01 5.772950e-02
    outer loop
      vertex   5.625000e+00 -1.526705e+01 9.919154e-01
      vertex   1.875000e+00 -1.526705e+01 9.919154e-01
      vertex   5.625000e+00 -1.528997e+01 5.954804e-01
    endloop
  endfacet
  facet normal 0.000000e+00 -9.983323e-01 5.772950e-02
    outer loop
      vertex   5.625000e+00 -1.528997e+01 5.954804e-01
      vertex   1.875000e+00 -1.526705e+01 9.919154e-01
      vertex   1.875000e+00 -1.528997e+01 5.954804e-01
    endloop
  endfacet
  facet normal 0.000000e+00 -9.995830e-01 2.887679e-02
    outer loop
      vertex   5.625000e+00 -1.528997e+01 5.954804e-01
      vertex   1.875000e+00 -1.528997e+01 5.954804e-01
      vertex   5.625000e+00 -1.530144e+01 1.985487e-01
    endloop
  endfacet
  facet normal 0.000000e+00 -9.995830e-01 2.887679e-02
    outer loop
      vertex   5.625000e+00 -1.530144e+01 1.985487e-01
      vertex   1.875000e+00 -1.528997e+01 5.954804e-01
      vertex   1.875000e+00 -1.530144e+01 1.985487e-01
    endloop
  endfacet
  facet normal -0.000000e+00 -1.000000e+00 -4.473354e-15
    outer loop
      vertex   5.625000e+00 -1.530144e+01 1.985487e-01
      vertex   1.875000e+00 -1.530144e+01 1.985487e-01
      vertex   1.875000e+00 -1.530144e+01 -1.985487e-01
    endloop
  endfacet
  facet normal 0.000000e+00 -1.000000e+00 -4.473354e-15
    outer loop
      vertex   5.625000e+00 -1.530144e+01 1.985487e-01
      vertex   1.875000e+00 -1.530144e+01 -1.985487e-01
      vertex   5.625000e+00 -1.530144e+01 -1.985487e-01
    endloop
  endfacet
  facet normal -0.000000e+00 -9.995830e-01 -2.887679e-02
    outer loop
      vertex   5.625000e+00 -1.530144e+01 -1.985487e-01
      vertex   1.875000e+00 -1.530144e+01 -1.985487e-01
      vertex   1.875000e+00 -1.528997e+01 -5.954804e-01
    endloop
  endfacet
  facet normal 0.000000e+00 -9.995830e-01 -2.887679e-02
    outer loop
      vertex   5.625000e+00 -1.530144e+01 -1.985487e-01
      vertex   1.875000e+00 -1.528997e+01 -5.954804e-01
      vertex   5.625000e+00 -1.528997e+01 -5.954804e-01
    endloop
  endfacet
  facet normal -0.000000e+00 -9.983323e-01 -5.772950e-02
    outer loop
      vertex   5.625000e+00 -1.528997e+01 -5.954804e-01
      vertex   1.875000e+00 -1.528997e+01 -5.954804e-01
      vertex   1.875000e+00 -1.526705e+01 -9.919154e-01
    endloop
  endfacet
  facet normal 0.000000e+00 -9.983323e-01 -5.772950e-02
    outer loop
      vertex   5.625000e+00 -1.528997e+01 -5.954804e-01
      vertex   1.875000e+00 -1.526705e+01 -9.919154e-01
      vertex   5.625000e+00 -1.526705e+01 -9.919154e-01
    endloop
  endfacet
  facet normal -0.000000e+00 -9.962489e-01 -8.653406e-02
    outer loop
      vertex   5.625000e+00 -1.526705e+01 -9.919154e-01
      vertex   1.875000e+00 -1.526705e+01 -9.919154e-01
      vertex   1.875000e+00 -1.523269e+01 -1.387523e+00
    endloop
  endfacet
  facet normal 0.000000e+00 -9.962489e-01 -8.653406e-02
    outer loop
      vertex   5.625000e+00 -1.526705e+01 -9.919154e-01
      vertex   1.875000e+00 -1.523269e+01 -1.387523e+00
      vertex   5.625000e+00 -1.523269e+01 -1.387523e+00
    endloop
  endfacet
  facet normal -0.000000e+00 -9.933346e-01 -1.152664e-01
    outer loop
      vertex   5.625000e+00 -1.523269e+01 -1.387523e+00
      vertex   1.875000e+00 -1.523269e+01 -1.387523e+00
      vertex   1.875000e+00 -1.518692e+01 -1.781974e+00
    endloop
  endfacet
  facet normal 0.000000e+00 -9.933346e-01 -1.152664e-01
    outer loop
      vertex   5.625000e+00 -1.523269e+01 -1.387523e+00
      vertex   1.875000e+00 -1.518692e+01 -1.781974e+00
      vertex   5.625000e+00 -1.518692e+01 -1.781974e+00
    endloop
  endfacet
  facet normal -0.000000e+00 -9.895918e-01 -1.439027e-01
    outer loop
      vertex   5.625000e+00 -1.518692e+01 -1.781974e+00
      vertex   1.875000e+00 -1.518692e+01 -1.781974e+00
      vertex   1.875000e+00 -1.512977e+01 -2.174938e+00
    endloop
  endfacet
  facet normal 0.000000e+00 -9.895918e-01 -1.439027e-01
    outer loop
      vertex   5.625000e+00 -1.518692e+01 -1.781974e+00
      vertex   1.875000e+00 -1.512977e+01 -2.174938e+00
      vertex   5.625000e+00 -1.512977e+01 -2.174938e+00
    endloop
  endfacet
  facet normal -0.000000e+00 -9.850237e-01 -1.724189e-01
    outer loop
      vertex   5.625000e+00 -1.512977e+01 -2.174938e+00
      vertex   1.875000e+00 -1.512977e+01 -2.174938e+00
      vertex   1.875000e+00 -1.506130e+01 -2.566088e+00
    endloop
  endfacet
  facet normal 0.000000e+00 -9.850237e-01 -1.724189e-01
    outer loop
      vertex   5.625000e+00 -1.512977e+01 -2.174938e+00
      vertex   1.875000e+00 -1.506130e+01 -2.566088e+00
      vertex   5.625000e+00 -1.506130e+01 -2.566088e+00
    endloop
  endfacet
  facet normal -0.000000e+00 -9.796340e-01 -2.007913e-01
    outer loop
      vertex   5.625000e+00 -1.506130e+01 -2.566088e+00
      vertex   1.875000e+00 -1.506130e+01 -2.566088e+00
      vertex   1.875000e+00 -1.498157e+01 -2.955098e+00
    endloop
  endfacet
  facet normal 0.000000e+00 -9.796340e-01 -2.007913e-01
    outer loop
      vertex   5.625000e+00 -1.506130e+01 -2.566088e+00
      vertex   1.875000e+00 -1.498157e+01 -2.955098e+00
      vertex   5.625000e+00 -1.498157e+01 -2.955098e+00
    endloop
  endfacet
  facet normal -0.000000e+00 -9.734273e-01 -2.289963e-01
    outer loop
      vertex   5.625000e+00 -1.498157e+01 -2.955098e+00
      vertex   1.875000e+00 -1.498157e+01 -2.955098e+00
      vertex   1.875000e+00 -1.489064e+01 -3.341644e+00
    endloop
  endfacet
  facet normal 0.000000e+00 -9.734273e-01 -2.289963e-01
    outer loop
      vertex   5.625000e+00 -1.498157e+01 -2.955098e+00
      vertex   1.875000e+00 -1.489064e+01 -3.341644e+00
      vertex   5.625000e+00 -1.489064e+01 -3.341644e+00
    endloop
  endfacet
  facet normal -0.000000e+00 -9.664087e-01 -2.570103e-01
    outer loop
      vertex   5.625000e+00 -1.489064e+01 -3.341644e+00
      vertex   1.875000e+00 -1.489064e+01 -3.341644e+00
      vertex   1.875000e+00 -1.478858e+01 -3.725402e+00
    endloop
  endfacet
  facet normal 0.000000e+00 -9.664087e-01 -2.570103e-01
    outer loop
      vertex   5.625000e+00 -1.489064e+01 -3.341644e+00
      vertex   1.875000e+00 -1.478858e+01 -3.725402e+00
      vertex   5.625000e+00 -1.478858e+01 -3.725402e+00
    endloop
  endfacet
  facet normal -0.000000e+00 -9.585840e-01 -2.848099e-01
    outer loop
      vertex   5.625000e+00 -1.478858e+01 -3.725402e+00
      vertex   1.875000e+00 -1.478858e+01 -3.725402e+00
      vertex   1.875000e+00 -1.467548e+01 -4.106053e+00
    endloop
  endfacet
  facet normal 0.000000e+00 -9.585840e-01 -2.848099e-01
    outer loop
      vertex   5.625000e+00 -1.478858e+01 -3.725402e+00
      vertex   1.875000e+00 -1.467548e+01 -4.106053e+00
      vertex   5.625000e+00 -1.467548e+01 -4.106053e+00
    endloop
  endfacet
  facet normal -0.000000e+00 -9.499599e-01 -3.123719e-01
    outer loop
      vertex   5.625000e+00 -1.467548e+01 -4.106053e+00
      vertex   1.875000e+00 -1.467548e+01 -4.106053e+00
      vertex   1.875000e+00 -1.455144e+01 -4.483280e+00
    endloop
  endfacet
  facet normal 0.000000e+00 -9.499599e-01 -3.123719e-01
    outer loop
      vertex   5.625000e+00 -1.467548e+01 -4.106053e+00
      vertex   1.875000e+00 -1.455144e+01 -4.483280e+00
      vertex   5.625000e+00 -1.455144e+01 -4.483280e+00
    endloop
  endfacet
  facet normal -0.000000e+00 -9.405434e-01 -3.396735e-01
    outer loop
      vertex   5.625000e+00 -1.455144e+01 -4.483280e+00
      vertex   1.875000e+00 -1.455144e+01 -4.483280e+00
      vertex   1.875000e+00 -1.441656e+01 -4.856767e+00
    endloop
  endfacet
  facet normal 0.000000e+00 -9.405434e-01 -3.396735e-01
    outer loop
      vertex   5.625000e+00 -1.455144e+01 -4.483280e+00
      vertex   1.875000e+00 -1.441656e+01 -4.856767e+00
      vertex   5.625000e+00 -1.441656e+01 -4.856767e+00
    endloop
  endfacet
  facet normal -0.000000e+00 -9.303425e-01 -3.666917e-01
    outer loop
      vertex   5.625000e+00 -1.441656e+01 -4.856767e+00
      vertex   1.875000e+00 -1.441656e+01 -4.856767e+00
      vertex   1.875000e+00 -1.427094e+01 -5.226203e+00
    endloop
  endfacet
  facet normal 0.000000e+00 -9.303425e-01 -3.666917e-01
    outer loop
      vertex   5.625000e+00 -1.441656e+01 -4.856767e+00
      vertex   1.875000e+00 -1.427094e+01 -5.226203e+00
      vertex   5.625000e+00 -1.427094e+01 -5.226203e+00
    endloop
  endfacet
  facet normal -0.000000e+00 -9.193657e-01 -3.934041e-01
    outer loop
      vertex   5.625000e+00 -1.427094e+01 -5.226203e+00
      vertex   1.875000e+00 -1.427094e+01 -5.226203e+00
      vertex   1.875000e+00 -1.411472e+01 -5.591281e+00
    endloop
  endfacet
  facet normal 0.000000e+00 -9.193657e-01 -3.934041e-01
    outer loop
      vertex   5.625000e+00 -1.427094e+01 -5.226203e+00
      vertex   1.875000e+00 -1.411472e+01 -5.591281e+00
      vertex   5.625000e+00 -1.411472e+01 -5.591281e+00
    endloop
  endfacet
  facet normal -0.000000e+00 -9.076220e-01 -4.197884e-01
    outer loop
      vertex   5.625000e+00 -1.411472e+01 -5.591281e+00
      vertex   1.875000e+00 -1.411472e+01 -5.591281e+00
      vertex   1.875000e+00 -1.394803e+01 -5.951695e+00
    endloop
  endfacet
  facet normal 0.000000e+00 -9.076220e-01 -4.197884e-01
    outer loop
      vertex   5.625000e+00 -1.411472e+01 -5.591281e+00
      vertex   1.875000e+00 -1.394803e+01 -5.951695e+00
      vertex   5.625000e+00 -1.394803e+01 -5.951695e+00
    endloop
  endfacet
  facet normal -0.000000e+00 -8.951214e-01 -4.458225e-01
    outer loop
      vertex   5.625000e+00 -1.394803e+01 -5.951695e+00
      vertex   1.875000e+00 -1.394803e+01 -5.951695e+00
      vertex   1.875000e+00 -1.377099e+01 -6.307145e+00
    endloop
  endfacet
  facet normal 0.000000e+00 -8.951214e-01 -4.458225e-01
    outer loop
      vertex   5.625000e+00 -1.394803e+01 -5.951695e+00
      vertex   1.875000e+00 -1.377099e+01 -6.307145e+00
      vertex   5.625000e+00 -1.377099e+01 -6.307145e+00
    endloop
  endfacet
  facet normal -0.000000e+00 -8.818742e-01 -4.714848e-01
    outer loop
      vertex   5.625000e+00 -1.377099e+01 -6.307145e+00
      vertex   1.875000e+00 -1.377099e+01 -6.307145e+00
      vertex   1.875000e+00 -1.358377e+01 -6.657335e+00
    endloop
  endfacet
  facet normal 0.000000e+00 -8.818742e-01 -4.714848e-01
    outer loop
      vertex   5.625000e+00 -1.377099e+01 -6.307145e+00
      vertex   1.875000e+00 -1.358377e+01 -6.657335e+00
      vertex   5.625000e+00 -1.358377e+01 -6.657335e+00
    endloop
  endfacet
  facet normal -0.000000e+00 -8.678914e-01 -4.967539e-01
    outer loop
      vertex   5.625000e+00 -1.358377e+01 -6.657335e+00
      vertex   1.875000e+00 -1.358377e+01 -6.657335e+00
      vertex   1.875000e+00 -1.338651e+01 -7.001973e+00
    endloop
  endfacet
  facet normal 0.000000e+00 -8.678914e-01 -4.967539e-01
    outer loop
      vertex   5.625000e+00 -1.358377e+01 -6.657335e+00
      vertex   1.875000e+00 -1.338651e+01 -7.001973e+00
      vertex   5.625000e+00 -1.338651e+01 -7.001973e+00
    endloop
  endfacet
  facet normal -0.000000e+00 -8.531849e-01 -5.216087e-01
    outer loop
      vertex   5.625000e+00 -1.338651e+01 -7.001973e+00
      vertex   1.875000e+00 -1.338651e+01 -7.001973e+00
      vertex   1.875000e+00 -1.317938e+01 -7.340770e+00
    endloop
  endfacet
  facet normal 0.000000e+00 -8.531849e-01 -5.216087e-01
    outer loop
      vertex   5.625000e+00 -1.338651e+01 -7.001973e+00
      vertex   1.875000e+00 -1.317938e+01 -7.340770e+00
      vertex   5.625000e+00 -1.317938e+01 -7.340770e+00
    endloop
  endfacet
  facet normal -0.000000e+00 -8.377667e-01 -5.460284e-01
    outer loop
      vertex   5.625000e+00 -1.317938e+01 -7.340770e+00
      vertex   1.875000e+00 -1.317938e+01 -7.340770e+00
      vertex   1.875000e+00 -1.296255e+01 -7.673445e+00
    endloop
  endfacet
  facet normal 0.000000e+00 -8.377667e-01 -5.460284e-01
    outer loop
      vertex   5.625000e+00 -1.317938e+01 -7.340770e+00
      vertex   1.875000e+00 -1.296255e+01 -7.673445e+00
      vertex   5.625000e+00 -1.296255e+01 -7.673445e+00
    endloop
  endfacet
  facet normal -0.000000e+00 -8.216498e-01 -5.699927e-01
    outer loop
      vertex   5.625000e+00 -1.296255e+01 -7.673445e+00
      vertex   1.875000e+00 -1.296255e+01 -7.673445e+00
      vertex   1.875000e+00 -1.273621e+01 -7.999720e+00
    endloop
  endfacet
  facet normal 0.000000e+00 -8.216498e-01 -5.699927e-01
    outer loop
      vertex   5.625000e+00 -1.296255e+01 -7.673445e+00
      vertex   1.875000e+00 -1.273621e+01 -7.999720e+00
      vertex   5.625000e+00 -1.273621e+01 -7.999720e+00
    endloop
  endfacet
  facet normal -0.000000e+00 -8.048476e-01 -5.934816e-01
    outer loop
      vertex   5.625000e+00 -1.273621e+01 -7.999720e+00
      vertex   1.875000e+00 -1.273621e+01 -7.999720e+00
      vertex   1.875000e+00 -1.250054e+01 -8.319323e+00
    endloop
  endfacet
  facet normal 0.000000e+00 -8.048476e-01 -5.934816e-01
    outer loop
      vertex   5.625000e+00 -1.273621e+01 -7.999720e+00
      vertex   1.875000e+00 -1.250054e+01 -8.319323e+00
      vertex   5.625000e+00 -1.250054e+01 -8.319323e+00
    endloop
  endfacet
  facet normal -0.000000e+00 -7.873741e-01 -6.164755e-01
    outer loop
      vertex   5.625000e+00 -1.250054e+01 -8.319323e+00
      vertex   1.875000e+00 -1.250054e+01 -8.319323e+00
      vertex   1.875000e+00 -1.225574e+01 -8.631987e+00
    endloop
  endfacet
  facet normal 0.000000e+00 -7.873741e-01 -6.164755e-01
    outer loop
      vertex   5.625000e+00 -1.250054e+01 -8.319323e+00
      vertex   1.875000e+00 -1.225574e+01 -8.631987e+00
      vertex   5.625000e+00 -1.225574e+01 -8.631987e+00
    endloop
  endfacet
  facet normal -0.000000e+00 -7.692439e-01 -6.389553e-01
    outer loop
      vertex   5.625000e+00 -1.225574e+01 -8.631987e+00
      vertex   1.875000e+00 -1.225574e+01 -8.631987e+00
      vertex   1.875000e+00 -1.200201e+01 -8.937451e+00
    endloop
  endfacet
  facet normal 0.000000e+00 -7.692439e-01 -6.389553e-01
    outer loop
      vertex   5.625000e+00 -1.225574e+01 -8.631987e+00
      vertex   1.875000e+00 -1.200201e+01 -8.937451e+00
      vertex   5.625000e+00 -1.200201e+01 -8.937451e+00
    endloop
  endfacet
  facet normal -0.000000e+00 -7.504721e-01 -6.609021e-01
    outer loop
      vertex   5.625000e+00 -1.200201e+01 -8.937451e+00
      vertex   1.875000e+00 -1.200201e+01 -8.937451e+00
      vertex   1.875000e+00 -1.173957e+01 -9.235462e+00
    endloop
  endfacet
  facet normal 0.000000e+00 -7.504721e-01 -6.609021e-01
    outer loop
      vertex   5.625000e+00 -1.200201e+01 -8.937451e+00
      vertex   1.875000e+00 -1.173957e+01 -9.235462e+00
      vertex   5.625000e+00 -1.173957e+01 -9.235462e+00
    endloop
  endfacet
  facet normal -0.000000e+00 -7.310744e-01 -6.822977e-01
    outer loop
      vertex   5.625000e+00 -1.173957e+01 -9.235462e+00
      vertex   1.875000e+00 -1.173957e+01 -9.235462e+00
      vertex   1.875000e+00 -1.146863e+01 -9.525770e+00
    endloop
  endfacet
  facet normal 0.000000e+00 -7.310744e-01 -6.822977e-01
    outer loop
      vertex   5.625000e+00 -1.173957e+01 -9.235462e+00
      vertex   1.875000e+00 -1.146863e+01 -9.525770e+00
      vertex   5.625000e+00 -1.146863e+01 -9.525770e+00
    endloop
  endfacet
  facet normal -0.000000e+00 -7.110670e-01 -7.031243e-01
    outer loop
      vertex   5.625000e+00 -1.146863e+01 -9.525770e+00
      vertex   1.875000e+00 -1.146863e+01 -9.525770e+00
      vertex   1.875000e+00 -1.118942e+01 -9.808132e+00
    endloop
  endfacet
  facet normal 0.000000e+00 -7.110670e-01 -7.031243e-01
    outer loop
      vertex   5.625000e+00 -1.146863e+01 -9.525770e+00
      vertex   1.875000e+00 -1.118942e+01 -9.808132e+00
      vertex   5.625000e+00 -1.118942e+01 -9.808132e+00
    endloop
  endfacet
  facet normal -0.000000e+00 -6.904665e-01 -7.233644e-01
    outer loop
      vertex   5.625000e+00 -1.118942e+01 -9.808132e+00
      vertex   1.875000e+00 -1.118942e+01 -9.808132e+00
      vertex   1.875000e+00 -1.090218e+01 -1.008231e+01
    endloop
  endfacet
  facet normal 0.000000e+00 -6.904665e-01 -7.233644e-01
    outer loop
      vertex   5.625000e+00 -1.118942e+01 -9.808132e+00
      vertex   1.875000e+00 -1.090218e+01 -1.008231e+01
      vertex   5.625000e+00 -1.090218e+01 -1.008231e+01
    endloop
  endfacet
  facet normal -0.000000e+00 -6.692901e-01 -7.430012e-01
    outer loop
      vertex   5.625000e+00 -1.090218e+01 -1.008231e+01
      vertex   1.875000e+00 -1.090218e+01 -1.008231e+01
      vertex   1.875000e+00 -1.060713e+01 -1.034809e+01
    endloop
  endfacet
  facet normal 0.000000e+00 -6.692901e-01 -7.430012e-01
    outer loop
      vertex   5.625000e+00 -1.090218e+01 -1.008231e+01
      vertex   1.875000e+00 -1.060713e+01 -1.034809e+01
      vertex   5.625000e+00 -1.060713e+01 -1.034809e+01
    endloop
  endfacet
  facet normal -0.000000e+00 -6.475555e-01 -7.620183e-01
    outer loop
      vertex   5.625000e+00 -1.060713e+01 -1.034809e+01
      vertex   1.875000e+00 -1.060713e+01 -1.034809e+01
      vertex   1.875000e+00 -1.030454e+01 -1.060523e+01
    endloop
  endfacet
  facet normal 0.000000e+00 -6.475555e-01 -7.620183e-01
    outer loop
      vertex   5.625000e+00 -1.060713e+01 -1.034809e+01
      vertex   1.875000e+00 -1.030454e+01 -1.060523e+01
      vertex   5.625000e+00 -1.030454e+01 -1.060523e+01
    endloop
  endfacet
  facet normal -0.000000e+00 -6.252808e-01 -7.803999e-01
    outer loop
      vertex   5.625000e+00 -1.030454e+01 -1.060523e+01
      vertex   1.875000e+00 -1.030454e+01 -1.060523e+01
      vertex   1.875000e+00 -9.994642e+00 -1.085353e+01
    endloop
  endfacet
  facet normal 0.000000e+00 -6.252808e-01 -7.803999e-01
    outer loop
      vertex   5.625000e+00 -1.030454e+01 -1.060523e+01
      vertex   1.875000e+00 -9.994642e+00 -1.085353e+01
      vertex   5.625000e+00 -9.994642e+00 -1.085353e+01
    endloop
  endfacet
  facet normal -0.000000e+00 -6.024846e-01 -7.981305e-01
    outer loop
      vertex   5.625000e+00 -9.994642e+00 -1.085353e+01
      vertex   1.875000e+00 -9.994642e+00 -1.085353e+01
      vertex   1.875000e+00 -9.677706e+00 -1.109277e+01
    endloop
  endfacet
  facet normal 0.000000e+00 -6.024846e-01 -7.981305e-01
    outer loop
      vertex   5.625000e+00 -9.994642e+00 -1.085353e+01
      vertex   1.875000e+00 -9.677706e+00 -1.109277e+01
      vertex   5.625000e+00 -9.677706e+00 -1.109277e+01
    endloop
  endfacet
  facet normal -0.000000e+00 -5.791859e-01 -8.151955e-01
    outer loop
      vertex   5.625000e+00 -9.677706e+00 -1.109277e+01
      vertex   1.875000e+00 -9.677706e+00 -1.109277e+01
      vertex   1.875000e+00 -9.353994e+00 -1.132277e+01
    endloop
  endfacet
  facet normal 0.000000e+00 -5.791859e-01 -8.151955e-01
    outer loop
      vertex   5.625000e+00 -9.677706e+00 -1.109277e+01
      vertex   1.875000e+00 -9.353994e+00 -1.132277e+01
      vertex   5.625000e+00 -9.353994e+00 -1.132277e+01
    endloop
  endfacet
  facet normal -0.000000e+00 -5.554041e-01 -8.315806e-01
    outer loop
      vertex   5.625000e+00 -9.353994e+00 -1.132277e+01
      vertex   1.875000e+00 -9.353994e+00 -1.132277e+01
      vertex   1.875000e+00 -9.023776e+00 -1.154332e+01
    endloop
  endfacet
  facet normal 0.000000e+00 -5.554041e-01 -8.315806e-01
    outer loop
      vertex   5.625000e+00 -9.353994e+00 -1.132277e+01
      vertex   1.875000e+00 -9.023776e+00 -1.154332e+01
      vertex   5.625000e+00 -9.023776e+00 -1.154332e+01
    endloop
  endfacet
  facet normal -0.000000e+00 -5.311591e-01 -8.472721e-01
    outer loop
      vertex   5.625000e+00 -9.023776e+00 -1.154332e+01
      vertex   1.875000e+00 -9.023776e+00 -1.154332e+01
      vertex   1.875000e+00 -8.687326e+00 -1.175424e+01
    endloop
  endfacet
  facet normal 0.000000e+00 -5.311591e-01 -8.472721e-01
    outer loop
      vertex   5.625000e+00 -9.023776e+00 -1.154332e+01
      vertex   1.875000e+00 -8.687326e+00 -1.175424e+01
      vertex   5.625000e+00 -8.687326e+00 -1.175424e+01
    endloop
  endfacet
  facet normal -0.000000e+00 -5.064711e-01 -8.622569e-01
    outer loop
      vertex   5.625000e+00 -8.687326e+00 -1.175424e+01
      vertex   1.875000e+00 -8.687326e+00 -1.175424e+01
      vertex   1.875000e+00 -8.344926e+00 -1.195536e+01
    endloop
  endfacet
  facet normal 0.000000e+00 -5.064711e-01 -8.622569e-01
    outer loop
      vertex   5.625000e+00 -8.687326e+00 -1.175424e+01
      vertex   1.875000e+00 -8.344926e+00 -1.195536e+01
      vertex   5.625000e+00 -8.344926e+00 -1.195536e+01
    endloop
  endfacet
  facet normal -0.000000e+00 -4.813607e-01 -8.765226e-01
    outer loop
      vertex   5.625000e+00 -8.344926e+00 -1.195536e+01
      vertex   1.875000e+00 -8.344926e+00 -1.195536e+01
      vertex   1.875000e+00 -7.996862e+00 -1.214650e+01
    endloop
  endfacet
  facet normal 0.000000e+00 -4.813607e-01 -8.765226e-01
    outer loop
      vertex   5.625000e+00 -8.344926e+00 -1.195536e+01
      vertex   1.875000e+00 -7.996862e+00 -1.214650e+01
      vertex   5.625000e+00 -7.996862e+00 -1.214650e+01
    endloop
  endfacet
  facet normal -0.000000e+00 -4.558488e-01 -8.900572e-01
    outer loop
      vertex   5.625000e+00 -7.996862e+00 -1.214650e+01
      vertex   1.875000e+00 -7.996862e+00 -1.214650e+01
      vertex   1.875000e+00 -7.643422e+00 -1.232752e+01
    endloop
  endfacet
  facet normal 0.000000e+00 -4.558488e-01 -8.900572e-01
    outer loop
      vertex   5.625000e+00 -7.996862e+00 -1.214650e+01
      vertex   1.875000e+00 -7.643422e+00 -1.232752e+01
      vertex   5.625000e+00 -7.643422e+00 -1.232752e+01
    endloop
  endfacet
  facet normal -0.000000e+00 -4.299567e-01 -9.028495e-01
    outer loop
      vertex   5.625000e+00 -7.643422e+00 -1.232752e+01
      vertex   1.875000e+00 -7.643422e+00 -1.232752e+01
      vertex   1.875000e+00 -7.284903e+00 -1.249825e+01
    endloop
  endfacet
  facet normal 0.000000e+00 -4.299567e-01 -9.028495e-01
    outer loop
      vertex   5.625000e+00 -7.643422e+00 -1.232752e+01
      vertex   1.875000e+00 -7.284903e+00 -1.249825e+01
      vertex   5.625000e+00 -7.284903e+00 -1.249825e+01
    endloop
  endfacet
  facet normal -0.000000e+00 -4.037060e-01 -9.148888e-01
    outer loop
      vertex   5.625000e+00 -7.284903e+00 -1.249825e+01
      vertex   1.875000e+00 -7.284903e+00 -1.249825e+01
      vertex   1.875000e+00 -6.921603e+00 -1.265856e+01
    endloop
  endfacet
  facet normal 0.000000e+00 -4.037060e-01 -9.148888e-01
    outer loop
      vertex   5.625000e+00 -7.284903e+00 -1.249825e+01
      vertex   1.875000e+00 -6.921603e+00 -1.265856e+01
      vertex   5.625000e+00 -6.921603e+00 -1.265856e+01
    endloop
  endfacet
  facet normal -0.000000e+00 -3.771186e-01 -9.261650e-01
    outer loop
      vertex   5.625000e+00 -6.921603e+00 -1.265856e+01
      vertex   1.875000e+00 -6.921603e+00 -1.265856e+01
      vertex   1.875000e+00 -6.553826e+00 -1.280832e+01
    endloop
  endfacet
  facet normal 0.000000e+00 -3.771186e-01 -9.261650e-01
    outer loop
      vertex   5.625000e+00 -6.921603e+00 -1.265856e+01
      vertex   1.875000e+00 -6.553826e+00 -1.280832e+01
      vertex   5.625000e+00 -6.553826e+00 -1.280832e+01
    endloop
  endfacet
  facet normal -0.000000e+00 -3.502167e-01 -9.366687e-01
    outer loop
      vertex   5.625000e+00 -6.553826e+00 -1.280832e+01
      vertex   1.875000e+00 -6.553826e+00 -1.280832e+01
      vertex   1.875000e+00 -6.181877e+00 -1.294739e+01
    endloop
  endfacet
  facet normal 0.000000e+00 -3.502167e-01 -9.366687e-01
    outer loop
      vertex   5.625000e+00 -6.553826e+00 -1.280832e+01
      vertex   1.875000e+00 -6.181877e+00 -1.294739e+01
      vertex   5.625000e+00 -6.181877e+00 -1.294739e+01
    endloop
  endfacet
  facet normal -0.000000e+00 -3.230226e-01 -9.463912e-01
    outer loop
      vertex   5.625000e+00 -6.181877e+00 -1.294739e+01
      vertex   1.875000e+00 -6.181877e+00 -1.294739e+01
      vertex   1.875000e+00 -5.806068e+00 -1.307566e+01
    endloop
  endfacet
  facet normal 0.000000e+00 -3.230226e-01 -9.463912e-01
    outer loop
      vertex   5.625000e+00 -6.181877e+00 -1.294739e+01
      vertex   1.875000e+00 -5.806068e+00 -1.307566e+01
      vertex   5.625000e+00 -5.806068e+00 -1.307566e+01
    endloop
  endfacet
  facet normal -0.000000e+00 -2.955592e-01 -9.553244e-01
    outer loop
      vertex   5.625000e+00 -5.806068e+00 -1.307566e+01
      vertex   1.875000e+00 -5.806068e+00 -1.307566e+01
      vertex   1.875000e+00 -5.426711e+00 -1.319302e+01
    endloop
  endfacet
  facet normal 0.000000e+00 -2.955592e-01 -9.553244e-01
    outer loop
      vertex   5.625000e+00 -5.806068e+00 -1.307566e+01
      vertex   1.875000e+00 -5.426711e+00 -1.319302e+01
      vertex   5.625000e+00 -5.426711e+00 -1.319302e+01
    endloop
  endfacet
  facet normal -0.000000e+00 -2.678492e-01 -9.634608e-01
    outer loop
      vertex   5.625000e+00 -5.426711e+00 -1.319302e+01
      vertex   1.875000e+00 -5.426711e+00 -1.319302e+01
      vertex   1.875000e+00 -5.044123e+00 -1.329939e+01
    endloop
  endfacet
  facet normal 0.000000e+00 -2.678492e-01 -9.634608e-01
    outer loop
      vertex   5.625000e+00 -5.426711e+00 -1.319302e+01
      vertex   1.875000e+00 -5.044123e+00 -1.329939e+01
      vertex   5.625000e+00 -5.044123e+00 -1.329939e+01
    endloop
  endfacet
  facet normal -0.000000e+00 -2.399158e-01 -9.707937e-01
    outer loop
      vertex   5.625000e+00 -5.044123e+00 -1.329939e+01
      vertex   1.875000e+00 -5.044123e+00 -1.329939e+01
      vertex   1.875000e+00 -4.658624e+00 -1.339466e+01
    endloop
  endfacet
  facet normal 0.000000e+00 -2.399158e-01 -9.707937e-01
    outer loop
      vertex   5.625000e+00 -5.044123e+00 -1.329939e+01
      vertex   1.875000e+00 -4.658624e+00 -1.339466e+01
      vertex   5.625000e+00 -4.658624e+00 -1.339466e+01
    endloop
  endfacet
  facet normal 0.000000e+00 1.000000e+00 0.000000e+00
    outer loop
      vertex   1.875000e+00 -4.658624e+00 -1.339466e+01
      vertex   1.875000e+00 -4.658624e+00 1.339466e+01
      vertex   5.625000e+00 -4.658624e+00 -1.339466e+01
    endloop
  endfacet
  facet normal 0.000000e+00 1.000000e+00 -0.000000e+00
    outer loop
      vertex   5.625000e+00 -4.658624e+00 -1.339466e+01
      vertex   1.875000e+00 -4.658624e+00 1.339466e+01
      vertex   5.625000e+00 -4.658624e+00 1.339466e+01
    endloop
  endfacet
  facet normal 1.000000e+00 0.000000e+00 -0.000000e+00
    outer loop
      vertex   5.625000e+00 -4.658624e+00 -1.339466e+01
      vertex   5.625000e+00 -4.658624e+00 1.339466e+01
      vertex   5.625000e+00 -5.044123e+00 -1.329939e+01
    endloop
  endfacet
  facet normal 1.000000e+00 0.000000e+00 -0.000000e+00
    outer loop
      vertex   5.625000e+00 -5.044123e+00 -1.329939e+01
      vertex   5.625000e+00 -4.658624e+00 1.339466e+01
      vertex   5.625000e+00 -5.044123e+00 1.329939e+01
    endloop
  endfacet
  facet normal 1.000000e+00 0.000000e+00 0.000000e+00
    outer loop
      vertex   5.625000e+00 -5.044123e+00 -1.329939e+01
      vertex   5.625000e+00 -5.044123e+00 1.329939e+01
      vertex   5.625000e+00 -5.426711e+00 -1.319302e+01
    endloop
  endfacet
  facet normal 1.000000e+00 0.000000e+00 0.000000e+00
    outer loop
      vertex   5.625000e+00 -5.426711e+00 -1.319302e+01
      vertex   5.625000e+00 -5.044123e+00 1.329939e+01
      vertex   5.625000e+00 -5.426711e+00 1.319302e+01
    endloop
  endfacet
  facet normal 1.000000e+00 0.000000e+00 -0.000000e+00
    outer loop
      vertex   5.625000e+00 -5.426711e+00 -1.319302e+01
      vertex   5.625000e+00 -5.426711e+00 1.319302e+01
      vertex   5.625000e+00 -5.806068e+00 -1.307566e+01
    endloop
  endfacet
  facet normal 1.000000e+00 0.000000e+00 0.000000e+00
    outer loop
      vertex   5.625000e+00 -5.806068e+00 -1.307566e+01
      vertex   5.625000e+00 -5.426711e+00 1.319302e+01
      vertex   5.625000e+00 -5.806068e+00 1.307566e+01
    endloop
  endfacet
  facet normal 1.000000e+00 0.000000e+00 -0.000000e+00
    outer loop
      vertex   5.625000e+00 -5.806068e+00 -1.307566e+01
      vertex   5.625000e+00 -5.806068e+00 1.307566e+01
      vertex   5.625000e+00 -6.181877e+00 -1.294739e+01
    endloop
  endfacet
  facet normal 1.000000e+00 0.000000e+00 -0.000000e+00
    outer loop
      vertex   5.625000e+00 -6.181877e+00 -1.294739e+01
      vertex   5.625000e+00 -5.806068e+00 1.307566e+01
      vertex   5.625000e+00 -6.181877e+00 1.294739e+01
    endloop
  endfacet
  facet normal 1.000000e+00 0.000000e+00 0.000000e+00
    outer loop
      vertex   5.625000e+00 -6.181877e+00 -1.294739e+01
      vertex   5.625000e+00 -6.181877e+00 1.294739e+01
      vertex   5.625000e+00 -6.553826e+00 -1.280832e+01
    endloop
  endfacet
  facet normal 1.000000e+00 0.000000e+00 0.000000e+00
    outer loop
      vertex   5.625000e+00 -6.553826e+00 -1.280832e+01
      vertex   5.625000e+00 -6.181877e+00 1.294739e+01
      vertex   5.625000e+00 -6.553826e+00 1.280832e+01
    endloop
  endfacet
  facet normal 1.000000e+00 0.000000e+00 -0.000000e+00
    outer loop
      vertex   5.625000e+00 -6.553826e+00 -1.280832e+01
      vertex   5.625000e+00 -6.553826e+00 1.280832e+01
      vertex   5.625000e+00 -6.921603e+00 -1.265856e+01
    endloop
  endfacet
  facet normal 1.000000e+00 0.000000e+00 0.000000e+00
    outer loop
      vertex   5.625000e+00 -6.921603e+00 -1.265856e+01
      vertex   5.625000e+00 -6.553826e+00 1.280832e+01
      vertex   5.625000e+00 -6.921603e+00 1.265856e+01
    endloop
  endfacet
  facet normal 1.000000e+00 0.000000e+00 -0.000000e+00
    outer loop
      vertex   5.625000e+00 -6.921603e+00 -1.265856e+01
      vertex   5.625000e+00 -6.921603e+00 1.265856e+01
      vertex   5.625000e+00 -7.284903e+00 -1.249825e+01
    endloop
  endfacet
  facet normal 1.000000e+00 0.000000e+00 -0.000000e+00
    outer loop
      vertex   5.625000e+00 -7.284903e+00 -1.249825e+01
      vertex   5.625000e+00 -6.921603e+00 1.265856e+01
      vertex   5.625000e+00 -7.284903e+00 1.249825e+01
    endloop
  endfacet
  facet normal 1.000000e+00 0.000000e+00 0.000000e+00
    outer loop
      vertex   5.625000e+00 -7.284903e+00 -1.249825e+01
      vertex   5.625000e+00 -7.284903e+00 1.249825e+01
      vertex   5.625000e+00 -7.643422e+00 -1.232752e+01
    endloop
  endfacet
  facet normal 1.000000e+00 0.000000e+00 0.000000e+00
    outer loop
      vertex   5.625000e+00 -7.643422e+00 -1.232752e+01
      vertex   5.625000e+00 -7.284903e+00 1.249825e+01
      vertex   5.625000e+00 -7.643422e+00 1.232752e+01
    endloop
  endfacet
  facet normal 1.000000e+00 0.000000e+00 -0.000000e+00
    outer loop
      vertex   5.625000e+00 -7.643422e+00 -1.232752e+01
      vertex   5.625000e+00 -7.643422e+00 1.232752e+01
      vertex   5.625000e+00 -7.996862e+00 -1.214650e+01
    endloop
  endfacet
  facet normal 1.000000e+00 0.000000e+00 0.000000e+00
    outer loop
      vertex   5.625000e+00 -7.996862e+00 -1.214650e+01
      vertex   5.625000e+00 -7.643422e+00 1.232752e+01
      vertex   5.625000e+00 -7.996862e+00 1.214650e+01
    endloop
  endfacet
  facet normal 1.000000e+00 0.000000e+00 -0.000000e+00
    outer loop
      vertex   5.625000e+00 -7.996862e+00 -1.214650e+01
      vertex   5.625000e+00 -7.996862e+00 1.214650e+01
      vertex   5.625000e+00 -8.344926e+00 -1.195536e+01
    endloop
  endfacet
  facet normal 1.000000e+00 0.000000e+00 -0.000000e+00
    outer loop
      vertex   5.625000e+00 -8.344926e+00 -1.195536e+01
      vertex   5.625000e+00 -7.996862e+00 1.214650e+01
      vertex   5.625000e+00 -8.344926e+00 1.195536e+01
    endloop
  endfacet
  facet normal 1.000000e+00 0.000000e+00 0.000000e+00
    outer loop
      vertex   5.625000e+00 -8.344926e+00 -1.195536e+01
      vertex   5.625000e+00 -8.344926e+00 1.195536e+01
      vertex   5.625000e+00 -8.687326e+00 -1.175424e+01
    endloop
  endfacet
  facet normal 1.000000e+00 0.000000e+00 0.000000e+00
    outer loop
      vertex   5.625000e+00 -8.687326e+00 -1.175424e+01
      vertex   5.625000e+00 -8.344926e+00 1.195536e+01
      vertex   5.625000e+00 -8.687326e+00 1.175424e+01
    endloop
  endfacet
  facet normal 1.000000e+00 0.000000e+00 -0.000000e+00
    outer loop
      vertex   5.625000e+00 -8.687326e+00 -1.175424e+01
      vertex   5.625000e+00 -8.687326e+00 1.175424e+01
      vertex   5.625000e+00 -9.023776e+00 -1.154332e+01
    endloop
  endfacet
  facet normal 1.000000e+00 0.000000e+00 0.000000e+00
    outer loop
      vertex   5.625000e+00 -9.023776e+00 -1.154332e+01
      vertex   5.625000e+00 -8.687326e+00 1.175424e+01
      vertex   5.625000e+00 -9.023776e+00 1.154332e+01
    endloop
  endfacet
  facet normal 1.000000e+00 0.000000e+00 -0.000000e+00
    outer loop
      vertex   5.625000e+00 -9.023776e+00 -1.154332e+01
      vertex   5.625000e+00 -9.023776e+00 1.154332e+01
      vertex   5.625000e+00 -9.353994e+00 -1.132277e+01
    endloop
  endfacet
  facet normal 1.000000e+00 0.000000e+00 -0.000000e+00
    outer loop
      vertex   5.625000e+00 -9.353994e+00 -1.132277e+01
      vertex   5.625000e+00 -9.023776e+00 1.154332e+01
      vertex   5.625000e+00 -9.353994e+00 1.132277e+01
    endloop
  endfacet
  facet normal 1.000000e+00 0.000000e+00 0.000000e+00
    outer loop
      vertex   5.625000e+00 -9.353994e+00 -1.132277e+01
      vertex   5.625000e+00 -9.353994e+00 1.132277e+01
      vertex   5.625000e+00 -9.677706e+00 -1.109277e+01
    endloop
  endfacet
  facet normal 1.000000e+00 0.000000e+00 0.000000e+00
    outer loop
      vertex   5.625000e+00 -9.677706e+00 -1.109277e+01
      vertex   5.625000e+00 -9.353994e+00 1.132277e+01
      vertex   5.625000e+00 -9.677706e+00 1.109277e+01
    endloop
  endfacet
  facet normal 1.000000e+00 0.000000e+00 -0.000000e+00
    outer loop
      vertex   5.625000e+00 -9.677706e+00 -1.109277e+01
      vertex   5.625000e+00 -9.677706e+00 1.109277e+01
      vertex   5.625000e+00 -9.994642e+00 -1.085353e+01
    endloop
  endfacet
  facet normal 1.000000e+00 0.000000e+00 0.000000e+00
    outer loop
      vertex   5.625000e+00 -9.994642e+00 -1.085353e+01
      vertex   5.625000e+00 -9.677706e+00 1.109277e+01
      vertex   5.625000e+00 -9.994642e+00 1.085353e+01
    endloop
  endfacet
  facet normal 1.000000e+00 0.000000e+00 -0.000000e+00
    outer loop
      vertex   5.625000e+00 -9.994642e+00 -1.085353e+01
      vertex   5.625000e+00 -9.994642e+00 1.085353e+01
      vertex   5.625000e+00 -1.030454e+01 -1.060523e+01
    endloop
  endfacet
  facet normal 1.000000e+00 0.000000e+00 0.000000e+00
    outer loop
      vertex   5.625000e+00 -1.030454e+01 -1.060523e+01
      vertex   5.625000e+00 -9.994642e+00 1.085353e+01
      vertex   5.625000e+00 -1.030454e+01 1.060523e+01
    endloop
  endfacet
  facet normal 1.000000e+00 0.000000e+00 -0.000000e+00
    outer loop
      vertex   5.625000e+00 -1.030454e+01 -1.060523e+01
      vertex   5.625000e+00 -1.030454e+01 1.060523e+01
      vertex   5.625000e+00 -1.060713e+01 -1.034809e+01
    endloop
  endfacet
  facet normal 1.000000e+00 0.000000e+00 -0.000000e+00
    outer loop
      vertex   5.625000e+00 -1.060713e+01 -1.034809e+01
      vertex   5.625000e+00 -1.030454e+01 1.060523e+01
      vertex   5.625000e+00 -1.060713e+01 1.034809e+01
    endloop
  endfacet
  facet normal 1.000000e+00 0.000000e+00 0.000000e+00
    outer loop
      vertex   5.625000e+00 -1.060713e+01 -1.034809e+01
      vertex   5.625000e+00 -1.060713e+01 1.034809e+01
      vertex   5.625000e+00 -1.090218e+01 -1.008231e+01
    endloop
  endfacet
  facet normal 1.000000e+00 0.000000e+00 -0.000000e+00
    outer loop
      vertex   5.625000e+00 -1.090218e+01 -1.008231e+01
      vertex   5.625000e+00 -1.060713e+01 1.034809e+01
      vertex   5.625000e+00 -1.090218e+01 1.008231e+01
    endloop
  endfacet
  facet normal 1.000000e+00 0.000000e+00 0.000000e+00
    outer loop
      vertex   5.625000e+00 -1.090218e+01 -1.008231e+01
      vertex   5.625000e+00 -1.090218e+01 1.008231e+01
      vertex   5.625000e+00 -1.118942e+01 -9.808132e+00
    endloop
  endfacet
  facet normal 1.000000e+00 0.000000e+00 0.000000e+00
    outer loop
      vertex   5.625000e+00 -1.118942e+01 -9.808132e+00
      vertex   5.625000e+00 -1.090218e+01 1.008231e+01
      vertex   5.625000e+00 -1.118942e+01 9.808132e+00
    endloop
  endfacet
  facet normal 1.000000e+00 0.000000e+00 -0.000000e+00
    outer loop
      vertex   5.625000e+00 -1.118942e+01 -9.808132e+00
      vertex   5.625000e+00 -1.118942e+01 9.808132e+00
      vertex   5.625000e+00 -1.146863e+01 -9.525770e+00
    endloop
  endfacet
  facet normal 1.000000e+00 0.000000e+00 0.000000e+00
    outer loop
      vertex   5.625000e+00 -1.146863e+01 -9.525770e+00
      vertex   5.625000e+00 -1.118942e+01 9.808132e+00
      vertex   5.625000e+00 -1.146863e+01 9.525770e+00
    endloop
  endfacet
  facet normal 1.000000e+00 0.000000e+00 -0.000000e+00
    outer loop
      vertex   5.625000e+00 -1.146863e+01 -9.525770e+00
      vertex   5.625000e+00 -1.146863e+01 9.525770e+00
      vertex   5.625000e+00 -1.173957e+01 -9.235462e+00
    endloop
  endfacet
  facet normal 1.000000e+00 0.000000e+00 0.000000e+00
    outer loop
      vertex   5.625000e+00 -1.173957e+01 -9.235462e+00
      vertex   5.625000e+00 -1.146863e+01 9.525770e+00
      vertex   5.625000e+00 -1.173957e+01 9.235462e+00
    endloop
  endfacet
  facet normal 1.000000e+00 0.000000e+00 -0.000000e+00
    outer loop
      vertex   5.625000e+00 -1.173957e+01 -9.235462e+00
      vertex   5.625000e+00 -1.173957e+01 9.235462e+00
      vertex   5.625000e+00 -1.200201e+01 -8.937451e+00
    endloop
  endfacet
  facet normal 1.000000e+00 0.000000e+00 0.000000e+00
    outer loop
      vertex   5.625000e+00 -1.200201e+01 -8.937451e+00
      vertex   5.625000e+00 -1.173957e+01 9.235462e+00
      vertex   5.625000e+00 -1.200201e+01 8.937451e+00
    endloop
  endfacet
  facet normal 1.000000e+00 0.000000e+00 -0.000000e+00
    outer loop
      vertex   5.625000e+00 -1.200201e+01 -8.937451e+00
      vertex   5.625000e+00 -1.200201e+01 8.937451e+00
      vertex   5.625000e+00 -1.225574e+01 -8.631987e+00
    endloop
  endfacet
  facet normal 1.000000e+00 0.000000e+00 0.000000e+00
    outer loop
      vertex   5.625000e+00 -1.225574e+01 -8.631987e+00
      vertex   5.625000e+00 -1.200201e+01 8.937451e+00
      vertex   5.625000e+00 -1.225574e+01 8.631987e+00
    endloop
  endfacet
  facet normal 1.000000e+00 0.000000e+00 -0.000000e+00
    outer loop
      vertex   5.625000e+00 -1.225574e+01 -8.631987e+00
      vertex   5.625000e+00 -1.225574e+01 8.631987e+00
      vertex   5.625000e+00 -1.250054e+01 -8.319323e+00
    endloop
  endfacet
  facet normal 1.000000e+00 0.000000e+00 0.000000e+00
    outer loop
      vertex   5.625000e+00 -1.250054e+01 -8.319323e+00
      vertex   5.625000e+00 -1.225574e+01 8.631987e+00
      vertex   5.625000e+00 -1.250054e+01 8.319323e+00
    endloop
  endfacet
  facet normal 1.000000e+00 0.000000e+00 -0.000000e+00
    outer loop
      vertex   5.625000e+00 -1.250054e+01 -8.319323e+00
      vertex   5.625000e+00 -1.250054e+01 8.319323e+00
      vertex   5.625000e+00 -1.273621e+01 -7.999720e+00
    endloop
  endfacet
  facet normal 1.000000e+00 0.000000e+00 -0.000000e+00
    outer loop
      vertex   5.625000e+00 -1.273621e+01 -7.999720e+00
      vertex   5.625000e+00 -1.250054e+01 8.319323e+00
      vertex   5.625000e+00 -1.273621e+01 7.999720e+00
    endloop
  endfacet
  facet normal 1.000000e+00 0.000000e+00 0.000000e+00
    outer loop
      vertex   5.625000e+00 -1.273621e+01 -7.999720e+00
      vertex   5.625000e+00 -1.273621e+01 7.999720e+00
      vertex   5.625000e+00 -1.296255e+01 -7.673445e+00
    endloop
  endfacet
  facet normal 1.000000e+00 0.000000e+00 -0.000000e+00
    outer loop
      vertex   5.625000e+00 -1.296255e+01 -7.673445e+00
      vertex   5.625000e+00 -1.273621e+01 7.999720e+00
      vertex   5.625000e+00 -1.296255e+01 7.673445e+00
    endloop
  endfacet
  facet normal 1.000000e+00 0.000000e+00 0.000000e+00
    outer loop
      vertex   5.625000e+00 -1.296255e+01 -7.673445e+00
      vertex   5.625000e+00 -1.296255e+01 7.673445e+00
      vertex   5.625000e+00 -1.317938e+01 -7.340770e+00
    endloop
  endfacet
  facet normal 1.000000e+00 0.000000e+00 0.000000e+00
    outer loop
      vertex   5.625000e+00 -1.317938e+01 -7.340770e+00
      vertex   5.625000e+00 -1.296255e+01 7.673445e+00
      vertex   5.625000e+00 -1.317938e+01 7.340770e+00
    endloop
  endfacet
  facet normal 1.000000e+00 0.000000e+00 -0.000000e+00
    outer loop
      vertex   5.625000e+00 -1.317938e+01 -7.340770e+00
      vertex   5.625000e+00 -1.317938e+01 7.340770e+00
      vertex   5.625000e+00 -1.338651e+01 -7.001973e+00
    endloop
  endfacet
  facet normal 1.000000e+00 0.000000e+00 0.000000e+00
    outer loop
      vertex   5.625000e+00 -1.338651e+01 -7.001973e+00
      vertex   5.625000e+00 -1.317938e+01 7.340770e+00
      vertex   5.625000e+00 -1.338651e+01 7.001973e+00
    endloop
  endfacet
  facet normal 1.000000e+00 0.000000e+00 -0.000000e+00
    outer loop
      vertex   5.625000e+00 -1.338651e+01 -7.001973e+00
      vertex   5.625000e+00 -1.338651e+01 7.001973e+00
      vertex   5.625000e+00 -1.358377e+01 -6.657335e+00
    endloop
  endfacet
  facet normal 1.000000e+00 0.000000e+00 0.000000e+00
    outer loop
      vertex   5.625000e+00 -1.358377e+01 -6.657335e+00
      vertex   5.625000e+00 -1.338651e+01 7.001973e+00
      vertex   5.625000e+00 -1.358377e+01 6.657335e+00
    endloop
  endfacet
  facet normal 1.000000e+00 0.000000e+00 -0.000000e+00
    outer loop
      vertex   5.625000e+00 -1.358377e+01 -6.657335e+00
      vertex   5.625000e+00 -1.358377e+01 6.657335e+00
      vertex   5.625000e+00 -1.377099e+01 -6.307145e+00
    endloop
  endfacet
  facet normal 1.000000e+00 0.000000e+00 -0.000000e+00
    outer loop
      vertex   5.625000e+00 -1.377099e+01 -6.307145e+00
      vertex   5.625000e+00 -1.358377e+01 6.657335e+00
      vertex   5.625000e+00 -1.377099e+01 6.307145e+00
    endloop
  endfacet
  facet normal 1.000000e+00 0.000000e+00 0.000000e+00
    outer loop
      vertex   5.625000e+00 -1.377099e+01 -6.307145e+00
      vertex   5.625000e+00 -1.377099e+01 6.307145e+00
      vertex   5.625000e+00 -1.394803e+01 -5.951695e+00
    endloop
  endfacet
  facet normal 1.000000e+00 0.000000e+00 -0.000000e+00
    outer loop
      vertex   5.625000e+00 -1.394803e+01 -5.951695e+00
      vertex   5.625000e+00 -1.377099e+01 6.307145e+00
      vertex   5.625000e+00 -1.394803e+01 5.951695e+00
    endloop
  endfacet
  facet normal 1.000000e+00 0.000000e+00 0.000000e+00
    outer loop
      vertex   5.625000e+00 -1.394803e+01 -5.951695e+00
      vertex   5.625000e+00 -1.394803e+01 5.951695e+00
      vertex   5.625000e+00 -1.411472e+01 -5.591281e+00
    endloop
  endfacet
  facet normal 1.000000e+00 0.000000e+00 -0.000000e+00
    outer loop
      vertex   5.625000e+00 -1.411472e+01 -5.591281e+00
      vertex   5.625000e+00 -1.394803e+01 5.951695e+00
      vertex   5.625000e+00 -1.411472e+01 5.591281e+00
    endloop
  endfacet
  facet normal 1.000000e+00 0.000000e+00 0.000000e+00
    outer loop
      vertex   5.625000e+00 -1.411472e+01 -5.591281e+00
      vertex   5.625000e+00 -1.411472e+01 5.591281e+00
      vertex   5.625000e+00 -1.427094e+01 -5.226203e+00
    endloop
  endfacet
  facet normal 1.000000e+00 0.000000e+00 0.000000e+00
    outer loop
      vertex   5.625000e+00 -1.427094e+01 -5.226203e+00
      vertex   5.625000e+00 -1.411472e+01 5.591281e+00
      vertex   5.625000e+00 -1.427094e+01 5.226203e+00
    endloop
  endfacet
  facet normal 1.000000e+00 0.000000e+00 -0.000000e+00
    outer loop
      vertex   5.625000e+00 -1.427094e+01 -5.226203e+00
      vertex   5.625000e+00 -1.427094e+01 5.226203e+00
      vertex   5.625000e+00 -1.441656e+01 -4.856767e+00
    endloop
  endfacet
  facet normal 1.000000e+00 0.000000e+00 0.000000e+00
    outer loop
      vertex   5.625000e+00 -1.441656e+01 -4.856767e+00
      vertex   5.625000e+00 -1.427094e+01 5.226203e+00
      vertex   5.625000e+00 -1.441656e+01 4.856767e+00
    endloop
  endfacet
  facet normal 1.000000e+00 0.000000e+00 -0.000000e+00
    outer loop
      vertex   5.625000e+00 -1.441656e+01 -4.856767e+00
      vertex   5.625000e+00 -1.441656e+01 4.856767e+00
      vertex   5.625000e+00 -1.455144e+01 -4.483280e+00
    endloop
  endfacet
  facet normal 1.000000e+00 0.000000e+00 -0.000000e+00
    outer loop
      vertex   5.625000e+00 -1.455144e+01 -4.483280e+00
      vertex   5.625000e+00 -1.441656e+01 4.856767e+00
      vertex   5.625000e+00 -1.455144e+01 4.483280e+00
    endloop
  endfacet
  facet normal 1.000000e+00 0.000000e+00 0.000000e+00
    outer loop
      vertex   5.625000e+00 -1.455144e+01 -4.483280e+00
      vertex   5.625000e+00 -1.455144e+01 4.483280e+00
      vertex   5.625000e+00 -1.467548e+01 -4.106053e+00
    endloop
  endfacet
  facet normal 1.000000e+00 0.000000e+00 0.000000e+00
    outer loop
      vertex   5.625000e+00 -1.467548e+01 -4.106053e+00
      vertex   5.625000e+00 -1.455144e+01 4.483280e+00
      vertex   5.625000e+00 -1.467548e+01 4.106053e+00
    endloop
  endfacet
  facet normal 1.000000e+00 0.000000e+00 -0.000000e+00
    outer loop
      vertex   5.625000e+00 -1.467548e+01 -4.106053e+00
      vertex   5.625000e+00 -1.467548e+01 4.106053e+00
      vertex   5.625000e+00 -1.478858e+01 -3.725402e+00
    endloop
  endfacet
  facet normal 1.000000e+00 0.000000e+00 0.000000e+00
    outer loop
      vertex   5.625000e+00 -1.478858e+01 -3.725402e+00
      vertex   5.625000e+00 -1.467548e+01 4.106053e+00
      vertex   5.625000e+00 -1.478858e+01 3.725402e+00
    endloop
  endfacet
  facet normal 1.000000e+00 0.000000e+00 -0.000000e+00
    outer loop
      vertex   5.625000e+00 -1.478858e+01 -3.725402e+00
      vertex   5.625000e+00 -1.478858e+01 3.725402e+00
      vertex   5.625000e+00 -1.489064e+01 -3.341644e+00
    endloop
  endfacet
  facet normal 1.000000e+00 0.000000e+00 0.000000e+00
    outer loop
      vertex   5.625000e+00 -1.489064e+01 -3.341644e+00
      vertex   5.625000e+00 -1.478858e+01 3.725402e+00
      vertex   5.625000e+00 -1.489064e+01 3.341644e+00
    endloop
  endfacet
  facet normal 1.000000e+00 0.000000e+00 -0.000000e+00
    outer loop
      vertex   5.625000e+00 -1.489064e+01 -3.341644e+00
      vertex   5.625000e+00 -1.489064e+01 3.341644e+00
      vertex   5.625000e+00 -1.498157e+01 -2.955098e+00
    endloop
  endfacet
  facet normal 1.000000e+00 0.000000e+00 0.000000e+00
    outer loop
      vertex   5.625000e+00 -1.498157e+01 -2.955098e+00
      vertex   5.625000e+00 -1.489064e+01 3.341644e+00
      vertex   5.625000e+00 -1.498157e+01 2.955098e+00
    endloop
  endfacet
  facet normal 1.000000e+00 0.000000e+00 -0.000000e+00
    outer loop
      vertex   5.625000e+00 -1.498157e+01 -2.955098e+00
      vertex   5.625000e+00 -1.498157e+01 2.955098e+00
      vertex   5.625000e+00 -1.506130e+01 -2.566088e+00
    endloop
  endfacet
  facet normal 1.000000e+00 0.000000e+00 -0.000000e+00
    outer loop
      vertex   5.625000e+00 -1.506130e+01 -2.566088e+00
      vertex   5.625000e+00 -1.498157e+01 2.955098e+00
      vertex   5.625000e+00 -1.506130e+01 2.566088e+00
    endloop
  endfacet
  facet normal 1.000000e+00 0.000000e+00 0.000000e+00
    outer loop
      vertex   5.625000e+00 -1.506130e+01 -2.566088e+00
      vertex   5.625000e+00 -1.506130e+01 2.566088e+00
      vertex   5.625000e+00 -1.512977e+01 -2.174938e+00
    endloop
  endfacet
  facet normal 1.000000e+00 0.000000e+00 0.000000e+00
    outer loop
      vertex   5.625000e+00 -1.512977e+01 -2.174938e+00
      vertex   5.625000e+00 -1.506130e+01 2.566088e+00
      vertex   5.625000e+00 -1.512977e+01 2.174938e+00
    endloop
  endfacet
  facet normal 1.000000e+00 0.000000e+00 -0.000000e+00
    outer loop
      vertex   5.625000e+00 -1.512977e+01 -2.174938e+00
      vertex   5.625000e+00 -1.512977e+01 2.174938e+00
      vertex   5.625000e+00 -1.518692e+01 -1.781974e+00
    endloop
  endfacet
  facet normal 1.000000e+00 0.000000e+00 -0.000000e+00
    outer loop
      vertex   5.625000e+00 -1.518692e+01 -1.781974e+00
      vertex   5.625000e+00 -1.512977e+01 2.174938e+00
      vertex   5.625000e+00 -1.518692e+01 1.781974e+00
    endloop
  endfacet
  facet normal 1.000000e+00 0.000000e+00 0.000000e+00
    outer loop
      vertex   5.625000e+00 -1.518692e+01 -1.781974e+00
      vertex   5.625000e+00 -1.518692e+01 1.781974e+00
      vertex   5.625000e+00 -1.523269e+01 -1.387523e+00
    endloop
  endfacet
  facet normal 1.000000e+00 0.000000e+00 -0.000000e+00
    outer loop
      vertex   5.625000e+00 -1.523269e+01 -1.387523e+00
      vertex   5.625000e+00 -1.518692e+01 1.781974e+00
      vertex   5.625000e+00 -1.523269e+01 1.387523e+00
    endloop
  endfacet
  facet normal 1.000000e+00 0.000000e+00 0.000000e+00
    outer loop
      vertex   5.625000e+00 -1.523269e+01 -1.387523e+00
      vertex   5.625000e+00 -1.523269e+01 1.387523e+00
      vertex   5.625000e+00 -1.526705e+01 -9.919154e-01
    endloop
  endfacet
  facet normal 1.000000e+00 0.000000e+00 0.000000e+00
    outer loop
      vertex   5.625000e+00 -1.526705e+01 -9.919154e-01
      vertex   5.625000e+00 -1.523269e+01 1.387523e+00
      vertex   5.625000e+00 -1.526705e+01 9.919154e-01
    endloop
  endfacet
  facet normal 1.000000e+00 0.000000e+00 -0.000000e+00
    outer loop
      vertex   5.625000e+00 -1.526705e+01 -9.919154e-01
      vertex   5.625000e+00 -1.526705e+01 9.919154e-01
      vertex   5.625000e+00 -1.528997e+01 -5.954804e-01
    endloop
  endfacet
  facet normal 1.000000e+00 0.000000e+00 0.000000e+00
    outer loop
      vertex   5.625000e+00 -1.528997e+01 -5.954804e-01
      vertex   5.625000e+00 -1.526705e+01 9.919154e-01
      vertex   5.625000e+00 -1.528997e+01 5.954804e-01
    endloop
  endfacet
  facet normal 1.000000e+00 0.000000e+00 -0.000000e+00
    outer loop
      vertex   5.625000e+00 -1.528997e+01 -5.954804e-01
      vertex   5.625000e+00 -1.528997e+01 5.954804e-01
      vertex   5.625000e+00 -1.530144e+01 -1.985487e-01
    endloop
  endfacet
  facet normal 1.000000e+00 0.000000e+00 -0.000000e+00
    outer loop
      vertex   5.625000e+00 -1.530144e+01 -1.985487e-01
      vertex   5.625000e+00 -1.528997e+01 5.954804e-01
      vertex   5.625000e+00 -1.530144e+01 1.985487e-01
    endloop
  endfacet
  facet normal -1.000000e+00 0.000000e+00 -0.000000e+00
    outer loop
      vertex   1.875000e+00 -4.658624e+00 1.339466e+01
      vertex   1.875000e+00 -4.658624e+00 -1.339466e+01
      vertex   1.875000e+00 -5.044123e+00 1.329939e+01
    endloop
  endfacet
  facet normal -1.000000e+00 0.000000e+00 0.000000e+00
    outer loop
      vertex   1.875000e+00 -5.044123e+00 1.329939e+01
      vertex   1.875000e+00 -4.658624e+00 -1.339466e+01
      vertex   1.875000e+00 -5.044123e+00 -1.329939e+01
    endloop
  endfacet
  facet normal -1.000000e+00 0.000000e+00 -0.000000e+00
    outer loop
      vertex   1.875000e+00 -5.044123e+00 1.329939e+01
      vertex   1.875000e+00 -5.044123e+00 -1.329939e+01
      vertex   1.875000e+00 -5.426711e+00 1.319302e+01
    endloop
  endfacet
  facet normal -1.000000e+00 0.000000e+00 -0.000000e+00
    outer loop
      vertex   1.875000e+00 -5.426711e+00 1.319302e+01
      vertex   1.875000e+00 -5.044123e+00 -1.329939e+01
      vertex   1.875000e+00 -5.426711e+00 -1.319302e+01
    endloop
  endfacet
  facet normal -1.000000e+00 0.000000e+00 0.000000e+00
    outer loop
      vertex   1.875000e+00 -5.426711e+00 1.319302e+01
      vertex   1.875000e+00 -5.426711e+00 -1.319302e+01
      vertex   1.875000e+00 -5.806068e+00 1.307566e+01
    endloop
  endfacet
  facet normal -1.000000e+00 0.000000e+00 0.000000e+00
    outer loop
      vertex   1.875000e+00 -5.806068e+00 1.307566e+01
      vertex   1.875000e+00 -5.426711e+00 -1.319302e+01
      vertex   1.875000e+00 -5.806068e+00 -1.307566e+01
    endloop
  endfacet
  facet normal -1.000000e+00 0.000000e+00 -0.000000e+00
    outer loop
      vertex   1.875000e+00 -5.806068e+00 1.307566e+01
      vertex   1.875000e+00 -5.806068e+00 -1.307566e+01
      vertex   1.875000e+00 -6.181877e+00 1.294739e+01
    endloop
  endfacet
  facet normal -1.000000e+00 0.000000e+00 0.000000e+00
    outer loop
      vertex   1.875000e+00 -6.181877e+00 1.294739e+01
      vertex   1.875000e+00 -5.806068e+00 -1.307566e+01
      vertex   1.875000e+00 -6.181877e+00 -1.294739e+01
    endloop
  endfacet
  facet normal -1.000000e+00 0.000000e+00 -0.000000e+00
    outer loop
      vertex   1.875000e+00 -6.181877e+00 1.294739e+01
      vertex   1.875000e+00 -6.181877e+00 -1.294739e+01
      vertex   1.875000e+00 -6.553826e+00 1.280832e+01
    endloop
  endfacet
  facet normal -1.000000e+00 0.000000e+00 -0.000000e+00
    outer loop
      vertex   1.875000e+00 -6.553826e+00 1.280832e+01
      vertex   1.875000e+00 -6.181877e+00 -1.294739e+01
      vertex   1.875000e+00 -6.553826e+00 -1.280832e+01
    endloop
  endfacet
  facet normal -1.000000e+00 0.000000e+00 0.000000e+00
    outer loop
      vertex   1.875000e+00 -6.553826e+00 1.280832e+01
      vertex   1.875000e+00 -6.553826e+00 -1.280832e+01
      vertex   1.875000e+00 -6.921603e+00 1.265856e+01
    endloop
  endfacet
  facet normal -1.000000e+00 0.000000e+00 -0.000000e+00
    outer loop
      vertex   1.875000e+00 -6.921603e+00 1.265856e+01
      vertex   1.875000e+00 -6.553826e+00 -1.280832e+01
      vertex   1.875000e+00 -6.921603e+00 -1.265856e+01
    endloop
  endfacet
  facet normal -1.000000e+00 0.000000e+00 0.000000e+00
    outer loop
      vertex   1.875000e+00 -6.921603e+00 1.265856e+01
      vertex   1.875000e+00 -6.921603e+00 -1.265856e+01
      vertex   1.875000e+00 -7.284903e+00 1.249825e+01
    endloop
  endfacet
  facet normal -1.000000e+00 0.000000e+00 0.000000e+00
    outer loop
      vertex   1.875000e+00 -7.284903e+00 1.249825e+01
      vertex   1.875000e+00 -6.921603e+00 -1.265856e+01
      vertex   1.875000e+00 -7.284903e+00 -1.249825e+01
    endloop
  endfacet
  facet normal -1.000000e+00 0.000000e+00 -0.000000e+00
    outer loop
      vertex   1.875000e+00 -7.284903e+00 1.249825e+01
      vertex   1.875000e+00 -7.284903e+00 -1.249825e+01
      vertex   1.875000e+00 -7.643422e+00 1.232752e+01
    endloop
  endfacet
  facet normal -1.000000e+00 0.000000e+00 -0.000000e+00
    outer loop
      vertex   1.875000e+00 -7.643422e+00 1.232752e+01
      vertex   1.875000e+00 -7.284903e+00 -1.249825e+01
      vertex   1.875000e+00 -7.643422e+00 -1.232752e+01
    endloop
  endfacet
  facet normal -1.000000e+00 0.000000e+00 0.000000e+00
    outer loop
      vertex   1.875000e+00 -7.643422e+00 1.232752e+01
      vertex   1.875000e+00 -7.643422e+00 -1.232752e+01
      vertex   1.875000e+00 -7.996862e+00 1.214650e+01
    endloop
  endfacet
  facet normal -1.000000e+00 0.000000e+00 0.000000e+00
    outer loop
      vertex   1.875000e+00 -7.996862e+00 1.214650e+01
      vertex   1.875000e+00 -7.643422e+00 -1.232752e+01
      vertex   1.875000e+00 -7.996862e+00 -1.214650e+01
    endloop
  endfacet
  facet normal -1.000000e+00 0.000000e+00 -0.000000e+00
    outer loop
      vertex   1.875000e+00 -7.996862e+00 1.214650e+01
      vertex   1.875000e+00 -7.996862e+00 -1.214650e+01
      vertex   1.875000e+00 -8.344926e+00 1.195536e+01
    endloop
  endfacet
  facet normal -1.000000e+00 0.000000e+00 0.000000e+00
    outer loop
      vertex   1.875000e+00 -8.344926e+00 1.195536e+01
      vertex   1.875000e+00 -7.996862e+00 -1.214650e+01
      vertex   1.875000e+00 -8.344926e+00 -1.195536e+01
    endloop
  endfacet
  facet normal -1.000000e+00 0.000000e+00 -0.000000e+00
    outer loop
      vertex   1.875000e+00 -8.344926e+00 1.195536e+01
      vertex   1.875000e+00 -8.344926e+00 -1.195536e+01
      vertex   1.875000e+00 -8.687326e+00 1.175424e+01
    endloop
  endfacet
  facet normal -1.000000e+00 0.000000e+00 0.000000e+00
    outer loop
      vertex   1.875000e+00 -8.687326e+00 1.175424e+01
      vertex   1.875000e+00 -8.344926e+00 -1.195536e+01
      vertex   1.875000e+00 -8.687326e+00 -1.175424e+01
    endloop
  endfacet
  facet normal -1.000000e+00 0.000000e+00 -0.000000e+00
    outer loop
      vertex   1.875000e+00 -8.687326e+00 1.175424e+01
      vertex   1.875000e+00 -8.687326e+00 -1.175424e+01
      vertex   1.875000e+00 -9.023776e+00 1.154332e+01
    endloop
  endfacet
  facet normal -1.000000e+00 0.000000e+00 0.000000e+00
    outer loop
      vertex   1.875000e+00 -9.023776e+00 1.154332e+01
      vertex   1.875000e+00 -8.687326e+00 -1.175424e+01
      vertex   1.875000e+00 -9.023776e+00 -1.154332e+01
    endloop
  endfacet
  facet normal -1.000000e+00 0.000000e+00 -0.000000e+00
    outer loop
      vertex   1.875000e+00 -9.023776e+00 1.154332e+01
      vertex   1.875000e+00 -9.023776e+00 -1.154332e+01
      vertex   1.875000e+00 -9.353994e+00 1.132277e+01
    endloop
  endfacet
  facet normal -1.000000e+00 0.000000e+00 0.000000e+00
    outer loop
      vertex   1.875000e+00 -9.353994e+00 1.132277e+01
      vertex   1.875000e+00 -9.023776e+00 -1.154332e+01
      vertex   1.875000e+00 -9.353994e+00 -1.132277e+01
    endloop
  endfacet
  facet normal -1.000000e+00 0.000000e+00 -0.000000e+00
    outer loop
      vertex   1.875000e+00 -9.353994e+00 1.132277e+01
      vertex   1.875000e+00 -9.353994e+00 -1.132277e+01
      vertex   1.875000e+00 -9.677706e+00 1.109277e+01
    endloop
  endfacet
  facet normal -1.000000e+00 0.000000e+00 -0.000000e+00
    outer loop
      vertex   1.875000e+00 -9.677706e+00 1.109277e+01
      vertex   1.875000e+00 -9.353994e+00 -1.132277e+01
      vertex   1.875000e+00 -9.677706e+00 -1.109277e+01
    endloop
  endfacet
  facet normal -1.000000e+00 0.000000e+00 0.000000e+00
    outer loop
      vertex   1.875000e+00 -9.677706e+00 1.109277e+01
      vertex   1.875000e+00 -9.677706e+00 -1.109277e+01
      vertex   1.875000e+00 -9.994642e+00 1.085353e+01
    endloop
  endfacet
  facet normal -1.000000e+00 0.000000e+00 0.000000e+00
    outer loop
      vertex   1.875000e+00 -9.994642e+00 1.085353e+01
      vertex   1.875000e+00 -9.677706e+00 -1.109277e+01
      vertex   1.875000e+00 -9.994642e+00 -1.085353e+01
    endloop
  endfacet
  facet normal -1.000000e+00 0.000000e+00 -0.000000e+00
    outer loop
      vertex   1.875000e+00 -9.994642e+00 1.085353e+01
      vertex   1.875000e+00 -9.994642e+00 -1.085353e+01
      vertex   1.875000e+00 -1.030454e+01 1.060523e+01
    endloop
  endfacet
  facet normal -1.000000e+00 0.000000e+00 -0.000000e+00
    outer loop
      vertex   1.875000e+00 -1.030454e+01 1.060523e+01
      vertex   1.875000e+00 -9.994642e+00 -1.085353e+01
      vertex   1.875000e+00 -1.030454e+01 -1.060523e+01
    endloop
  endfacet
  facet normal -1.000000e+00 0.000000e+00 0.000000e+00
    outer loop
      vertex   1.875000e+00 -1.030454e+01 1.060523e+01
      vertex   1.875000e+00 -1.030454e+01 -1.060523e+01
      vertex   1.875000e+00 -1.060713e+01 1.034809e+01
    endloop
  endfacet
  facet normal -1.000000e+00 0.000000e+00 0.000000e+00
    outer loop
      vertex   1.875000e+00 -1.060713e+01 1.034809e+01
      vertex   1.875000e+00 -1.030454e+01 -1.060523e+01
      vertex   1.875000e+00 -1.060713e+01 -1.034809e+01
    endloop
  endfacet
  facet normal -1.000000e+00 0.000000e+00 -0.000000e+00
    outer loop
      vertex   1.875000e+00 -1.060713e+01 1.034809e+01
      vertex   1.875000e+00 -1.060713e+01 -1.034809e+01
      vertex   1.875000e+00 -1.090218e+01 1.008231e+01
    endloop
  endfacet
  facet normal -1.000000e+00 0.000000e+00 0.000000e+00
    outer loop
      vertex   1.875000e+00 -1.090218e+01 1.008231e+01
      vertex   1.875000e+00 -1.060713e+01 -1.034809e+01
      vertex   1.875000e+00 -1.090218e+01 -1.008231e+01
    endloop
  endfacet
  facet normal -1.000000e+00 0.000000e+00 -0.000000e+00
    outer loop
      vertex   1.875000e+00 -1.090218e+01 1.008231e+01
      vertex   1.875000e+00 -1.090218e+01 -1.008231e+01
      vertex   1.875000e+00 -1.118942e+01 9.808132e+00
    endloop
  endfacet
  facet normal -1.000000e+00 0.000000e+00 -0.000000e+00
    outer loop
      vertex   1.875000e+00 -1.118942e+01 9.808132e+00
      vertex   1.875000e+00 -1.090218e+01 -1.008231e+01
      vertex   1.875000e+00 -1.118942e+01 -9.808132e+00
    endloop
  endfacet
  facet normal -1.000000e+00 0.000000e+00 0.000000e+00
    outer loop
      vertex   1.875000e+00 -1.118942e+01 9.808132e+00
      vertex   1.875000e+00 -1.118942e+01 -9.808132e+00
      vertex   1.875000e+00 -1.146863e+01 9.525770e+00
    endloop
  endfacet
  facet normal -1.000000e+00 0.000000e+00 -0.000000e+00
    outer loop
      vertex   1.875000e+00 -1.146863e+01 9.525770e+00
      vertex   1.875000e+00 -1.118942e+01 -9.808132e+00
      vertex   1.875000e+00 -1.146863e+01 -9.525770e+00
    endloop
  endfacet
  facet normal -1.000000e+00 0.000000e+00 0.000000e+00
    outer loop
      vertex   1.875000e+00 -1.146863e+01 9.525770e+00
      vertex   1.875000e+00 -1.146863e+01 -9.525770e+00
      vertex   1.875000e+00 -1.173957e+01 9.235462e+00
    endloop
  endfacet
  facet normal -1.000000e+00 0.000000e+00 0.000000e+00
    outer loop
      vertex   1.875000e+00 -1.173957e+01 9.235462e+00
      vertex   1.875000e+00 -1.146863e+01 -9.525770e+00
      vertex   1.875000e+00 -1.173957e+01 -9.235462e+00
    endloop
  endfacet
  facet normal -1.000000e+00 0.000000e+00 -0.000000e+00
    outer loop
      vertex   1.875000e+00 -1.173957e+01 9.235462e+00
      vertex   1.875000e+00 -1.173957e+01 -9.235462e+00
      vertex   1.875000e+00 -1.200201e+01 8.937451e+00
    endloop
  endfacet
  facet normal -1.000000e+00 0.000000e+00 -0.000000e+00
    outer loop
      vertex   1.875000e+00 -1.200201e+01 8.937451e+00
      vertex   1.875000e+00 -1.173957e+01 -9.235462e+00
      vertex   1.875000e+00 -1.200201e+01 -8.937451e+00
    endloop
  endfacet
  facet normal -1.000000e+00 0.000000e+00 0.000000e+00
    outer loop
      vertex   1.875000e+00 -1.200201e+01 8.937451e+00
      vertex   1.875000e+00 -1.200201e+01 -8.937451e+00
      vertex   1.875000e+00 -1.225574e+01 8.631987e+00
    endloop
  endfacet
  facet normal -1.000000e+00 0.000000e+00 0.000000e+00
    outer loop
      vertex   1.875000e+00 -1.225574e+01 8.631987e+00
      vertex   1.875000e+00 -1.200201e+01 -8.937451e+00
      vertex   1.875000e+00 -1.225574e+01 -8.631987e+00
    endloop
  endfacet
  facet normal -1.000000e+00 0.000000e+00 -0.000000e+00
    outer loop
      vertex   1.875000e+00 -1.225574e+01 8.631987e+00
      vertex   1.875000e+00 -1.225574e+01 -8.631987e+00
      vertex   1.875000e+00 -1.250054e+01 8.319323e+00
    endloop
  endfacet
  facet normal -1.000000e+00 0.000000e+00 0.000000e+00
    outer loop
      vertex   1.875000e+00 -1.250054e+01 8.319323e+00
      vertex   1.875000e+00 -1.225574e+01 -8.631987e+00
      vertex   1.875000e+00 -1.250054e+01 -8.319323e+00
    endloop
  endfacet
  facet normal -1.000000e+00 0.000000e+00 -0.000000e+00
    outer loop
      vertex   1.875000e+00 -1.250054e+01 8.319323e+00
      vertex   1.875000e+00 -1.250054e+01 -8.319323e+00
      vertex   1.875000e+00 -1.273621e+01 7.999720e+00
    endloop
  endfacet
  facet normal -1.000000e+00 0.000000e+00 0.000000e+00
    outer loop
      vertex   1.875000e+00 -1.273621e+01 7.999720e+00
      vertex   1.875000e+00 -1.250054e+01 -8.319323e+00
      vertex   1.875000e+00 -1.273621e+01 -7.999720e+00
    endloop
  endfacet
  facet normal -1.000000e+00 0.000000e+00 -0.000000e+00
    outer loop
      vertex   1.875000e+00 -1.273621e+01 7.999720e+00
      vertex   1.875000e+00 -1.273621e+01 -7.999720e+00
      vertex   1.875000e+00 -1.296255e+01 7.673445e+00
    endloop
  endfacet
  facet normal -1.000000e+00 0.000000e+00 0.000000e+00
    outer loop
      vertex   1.875000e+00 -1.296255e+01 7.673445e+00
      vertex   1.875000e+00 -1.273621e+01 -7.999720e+00
      vertex   1.875000e+00 -1.296255e+01 -7.673445e+00
    endloop
  endfacet
  facet normal -1.000000e+00 0.000000e+00 -0.000000e+00
    outer loop
      vertex   1.875000e+00 -1.296255e+01 7.673445e+00
      vertex   1.875000e+00 -1.296255e+01 -7.673445e+00
      vertex   1.875000e+00 -1.317938e+01 7.340770e+00
    endloop
  endfacet
  facet normal -1.000000e+00 0.000000e+00 -0.000000e+00
    outer loop
      vertex   1.875000e+00 -1.317938e+01 7.340770e+00
      vertex   1.875000e+00 -1.296255e+01 -7.673445e+00
      vertex   1.875000e+00 -1.317938e+01 -7.340770e+00
    endloop
  endfacet
  facet normal -1.000000e+00 0.000000e+00 0.000000e+00
    outer loop
      vertex   1.875000e+00 -1.317938e+01 7.340770e+00
      vertex   1.875000e+00 -1.317938e+01 -7.340770e+00
      vertex   1.875000e+00 -1.338651e+01 7.001973e+00
    endloop
  endfacet
  facet normal -1.000000e+00 0.000000e+00 0.000000e+00
    outer loop
      vertex   1.875000e+00 -1.338651e+01 7.001973e+00
      vertex   1.875000e+00 -1.317938e+01 -7.340770e+00
      vertex   1.875000e+00 -1.338651e+01 -7.001973e+00
    endloop
  endfacet
  facet normal -1.000000e+00 0.000000e+00 -0.000000e+00
    outer loop
      vertex   1.875000e+00 -1.338651e+01 7.001973e+00
      vertex   1.875000e+00 -1.338651e+01 -7.001973e+00
      vertex   1.875000e+00 -1.358377e+01 6.657335e+00
    endloop
  endfacet
  facet normal -1.000000e+00 0.000000e+00 0.000000e+00
    outer loop
      vertex   1.875000e+00 -1.358377e+01 6.657335e+00
      vertex   1.875000e+00 -1.338651e+01 -7.001973e+00
      vertex   1.875000e+00 -1.358377e+01 -6.657335e+00
    endloop
  endfacet
  facet normal -1.000000e+00 0.000000e+00 -0.000000e+00
    outer loop
      vertex   1.875000e+00 -1.358377e+01 6.657335e+00
      vertex   1.875000e+00 -1.358377e+01 -6.657335e+00
      vertex   1.875000e+00 -1.377099e+01 6.307145e+00
    endloop
  endfacet
  facet normal -1.000000e+00 0.000000e+00 0.000000e+00
    outer loop
      vertex   1.875000e+00 -1.377099e+01 6.307145e+00
      vertex   1.875000e+00 -1.358377e+01 -6.657335e+00
      vertex   1.875000e+00 -1.377099e+01 -6.307145e+00
    endloop
  endfacet
  facet normal -1.000000e+00 0.000000e+00 -0.000000e+00
    outer loop
      vertex   1.875000e+00 -1.377099e+01 6.307145e+00
      vertex   1.875000e+00 -1.377099e+01 -6.307145e+00
      vertex   1.875000e+00 -1.394803e+01 5.951695e+00
    endloop
  endfacet
  facet normal -1.000000e+00 0.000000e+00 0.000000e+00
    outer loop
      vertex   1.875000e+00 -1.394803e+01 5.951695e+00
      vertex   1.875000e+00 -1.377099e+01 -6.307145e+00
      vertex   1.875000e+00 -1.394803e+01 -5.951695e+00
    endloop
  endfacet
  facet normal -1.000000e+00 0.000000e+00 -0.000000e+00
    outer loop
      vertex   1.875000e+00 -1.394803e+01 5.951695e+00
      vertex   1.875000e+00 -1.394803e+01 -5.951695e+00
      vertex   1.875000e+00 -1.411472e+01 5.591281e+00
    endloop
  endfacet
  facet normal -1.000000e+00 0.000000e+00 0.000000e+00
    outer loop
      vertex   1.875000e+00 -1.411472e+01 5.591281e+00
      vertex   1.875000e+00 -1.394803e+01 -5.951695e+00
      vertex   1.875000e+00 -1.411472e+01 -5.591281e+00
    endloop
  endfacet
  facet normal -1.000000e+00 0.000000e+00 -0.000000e+00
    outer loop
      vertex   1.875000e+00 -1.411472e+01 5.591281e+00
      vertex   1.875000e+00 -1.411472e+01 -5.591281e+00
      vertex   1.875000e+00 -1.427094e+01 5.226203e+00
    endloop
  endfacet
  facet normal -1.000000e+00 0.000000e+00 -0.000000e+00
    outer loop
      vertex   1.875000e+00 -1.427094e+01 5.226203e+00
      vertex   1.875000e+00 -1.411472e+01 -5.591281e+00
      vertex   1.875000e+00 -1.427094e+01 -5.226203e+00
    endloop
  endfacet
  facet normal -1.000000e+00 0.000000e+00 0.000000e+00
    outer loop
      vertex   1.875000e+00 -1.427094e+01 5.226203e+00
      vertex   1.875000e+00 -1.427094e+01 -5.226203e+00
      vertex   1.875000e+00 -1.441656e+01 4.856767e+00
    endloop
  endfacet
  facet normal -1.000000e+00 0.000000e+00 -0.000000e+00
    outer loop
      vertex   1.875000e+00 -1.441656e+01 4.856767e+00
      vertex   1.875000e+00 -1.427094e+01 -5.226203e+00
      vertex   1.875000e+00 -1.441656e+01 -4.856767e+00
    endloop
  endfacet
  facet normal -1.000000e+00 0.000000e+00 0.000000e+00
    outer loop
      vertex   1.875000e+00 -1.441656e+01 4.856767e+00
      vertex   1.875000e+00 -1.441656e+01 -4.856767e+00
      vertex   1.875000e+00 -1.455144e+01 4.483280e+00
    endloop
  endfacet
  facet normal -1.000000e+00 0.000000e+00 0.000000e+00
    outer loop
      vertex   1.875000e+00 -1.455144e+01 4.483280e+00
      vertex   1.875000e+00 -1.441656e+01 -4.856767e+00
      vertex   1.875000e+00 -1.455144e+01 -4.483280e+00
    endloop
  endfacet
  facet normal -1.000000e+00 0.000000e+00 -0.000000e+00
    outer loop
      vertex   1.875000e+00 -1.455144e+01 4.483280e+00
      vertex   1.875000e+00 -1.455144e+01 -4.483280e+00
      vertex   1.875000e+00 -1.467548e+01 4.106053e+00
    endloop
  endfacet
  facet normal -1.000000e+00 0.000000e+00 0.000000e+00
    outer loop
      vertex   1.875000e+00 -1.467548e+01 4.106053e+00
      vertex   1.875000e+00 -1.455144e+01 -4.483280e+00
      vertex   1.875000e+00 -1.467548e+01 -4.106053e+00
    endloop
  endfacet
  facet normal -1.000000e+00 0.000000e+00 -0.000000e+00
    outer loop
      vertex   1.875000e+00 -1.467548e+01 4.106053e+00
      vertex   1.875000e+00 -1.467548e+01 -4.106053e+00
      vertex   1.875000e+00 -1.478858e+01 3.725402e+00
    endloop
  endfacet
  facet normal -1.000000e+00 0.000000e+00 0.000000e+00
    outer loop
      vertex   1.875000e+00 -1.478858e+01 3.725402e+00
      vertex   1.875000e+00 -1.467548e+01 -4.106053e+00
      vertex   1.875000e+00 -1.478858e+01 -3.725402e+00
    endloop
  endfacet
  facet normal -1.000000e+00 0.000000e+00 -0.000000e+00
    outer loop
      vertex   1.875000e+00 -1.478858e+01 3.725402e+00
      vertex   1.875000e+00 -1.478858e+01 -3.725402e+00
      vertex   1.875000e+00 -1.489064e+01 3.341644e+00
    endloop
  endfacet
  facet normal -1.000000e+00 0.000000e+00 0.000000e+00
    outer loop
      vertex   1.875000e+00 -1.489064e+01 3.341644e+00
      vertex   1.875000e+00 -1.478858e+01 -3.725402e+00
      vertex   1.875000e+00 -1.489064e+01 -3.341644e+00
    endloop
  endfacet
  facet normal -1.000000e+00 0.000000e+00 -0.000000e+00
    outer loop
      vertex   1.875000e+00 -1.489064e+01 3.341644e+00
      vertex   1.875000e+00 -1.489064e+01 -3.341644e+00
      vertex   1.875000e+00 -1.498157e+01 2.955098e+00
    endloop
  endfacet
  facet normal -1.000000e+00 0.000000e+00 -0.000000e+00
    outer loop
      vertex   1.875000e+00 -1.498157e+01 2.955098e+00
      vertex   1.875000e+00 -1.489064e+01 -3.341644e+00
      vertex   1.875000e+00 -1.498157e+01 -2.955098e+00
    endloop
  endfacet
  facet normal -1.000000e+00 0.000000e+00 0.000000e+00
    outer loop
      vertex   1.875000e+00 -1.498157e+01 2.955098e+00
      vertex   1.875000e+00 -1.498157e+01 -2.955098e+00
      vertex   1.875000e+00 -1.506130e+01 2.566088e+00
    endloop
  endfacet
  facet normal -1.000000e+00 0.000000e+00 0.000000e+00
    outer loop
      vertex   1.875000e+00 -1.506130e+01 2.566088e+00
      vertex   1.875000e+00 -1.498157e+01 -2.955098e+00
      vertex   1.875000e+00 -1.506130e+01 -2.566088e+00
    endloop
  endfacet
  facet normal -1.000000e+00 0.000000e+00 -0.000000e+00
    outer loop
      vertex   1.875000e+00 -1.506130e+01 2.566088e+00
      vertex   1.875000e+00 -1.506130e+01 -2.566088e+00
      vertex   1.875000e+00 -1.512977e+01 2.174938e+00
    endloop
  endfacet
  facet normal -1.000000e+00 0.000000e+00 0.000000e+00
    outer loop
      vertex   1.875000e+00 -1.512977e+01 2.174938e+00
      vertex   1.875000e+00 -1.506130e+01 -2.566088e+00
      vertex   1.875000e+00 -1.512977e+01 -2.174938e+00
    endloop
  endfacet
  facet normal -1.000000e+00 0.000000e+00 -0.000000e+00
    outer loop
      vertex   1.875000e+00 -1.512977e+01 2.174938e+00
      vertex   1.875000e+00 -1.512977e+01 -2.174938e+00
      vertex   1.875000e+00 -1.518692e+01 1.781974e+00
    endloop
  endfacet
  facet normal -1.000000e+00 0.000000e+00 0.000000e+00
    outer loop
      vertex   1.875000e+00 -1.518692e+01 1.781974e+00
      vertex   1.875000e+00 -1.512977e+01 -2.174938e+00
      vertex   1.875000e+00 -1.518692e+01 -1.781974e+00
    endloop
  endfacet
  facet normal -1.000000e+00 0.000000e+00 -0.000000e+00
    outer loop
      vertex   1.875000e+00 -1.518692e+01 1.781974e+00
      vertex   1.875000e+00 -1.518692e+01 -1.781974e+00
      vertex   1.875000e+00 -1.523269e+01 1.387523e+00
    endloop
  endfacet
  facet normal -1.000000e+00 0.000000e+00 0.000000e+00
    outer loop
      vertex   1.875000e+00 -1.523269e+01 1.387523e+00
      vertex   1.875000e+00 -1.518692e+01 -1.781974e+00
      vertex   1.875000e+00 -1.523269e+01 -1.387523e+00
    endloop
  endfacet
  facet normal -1.000000e+00 0.000000e+00 -0.000000e+00
    outer loop
      vertex   1.875000e+00 -1.523269e+01 1.387523e+00
      vertex   1.875000e+00 -1.523269e+01 -1.387523e+00
      vertex   1.875000e+00 -1.526705e+01 9.919154e-01
    endloop
  endfacet
  facet normal -1.000000e+00 0.000000e+00 0.000000e+00
    outer loop
      vertex   1.875000e+00 -1.526705e+01 9.919154e-01
      vertex   1.875000e+00 -1.523269e+01 -1.387523e+00
      vertex   1.875000e+00 -1.526705e+01 -9.919154e-01
    endloop
  endfacet
  facet normal -1.000000e+00 0.000000e+00 -0.000000e+00
    outer loop
      vertex   1.875000e+00 -1.526705e+01 9.919154e-01
      vertex   1.875000e+00 -1.526705e+01 -9.919154e-01
      vertex   1.875000e+00 -1.528997e+01 5.954804e-01
    endloop
  endfacet
  facet normal -1.000000e+00 0.000000e+00 0.000000e+00
    outer loop
      vertex   1.875000e+00 -1.528997e+01 5.954804e-01
      vertex   1.875000e+00 -1.526705e+01 -9.919154e-01
      vertex   1.875000e+00 -1.528997e+01 -5.954804e-01
    endloop
  endfacet
  facet normal -1.000000e+00 0.000000e+00 -0.000000e+00
    outer loop
      vertex   1.875000e+00 -1.528997e+01 5.954804e-01
      vertex   1.875000e+00 -1.528997e+01 -5.954804e-01
      vertex   1.875000e+00 -1.530144e+01 1.985487e-01
    endloop
  endfacet
  facet normal -1.000000e+00 0.000000e+00 0.000000e+00
    outer loop
      vertex   1.875000e+00 -1.530144e+01 1.985487e-01
      vertex   1.875000e+00 -1.528997e+01 -5.954804e-01
      vertex   1.875000e+00 -1.530144e+01 -1.985487e-01
    endloop
  endfacet
endsolid
